<?xml version="1.0" encoding="UTF-8" standalone="no"?>
<!DOCTYPE svg PUBLIC "-//W3C//DTD SVG 1.1//EN"
 "http://www.w3.org/Graphics/SVG/1.1/DTD/svg11.dtd">
<!-- Generated by graphviz version 2.47.3 (0)
 -->
<!-- Pages: 1 -->
<svg width="1302pt" height="404pt"
 viewBox="0.00 0.00 1302.24 404.00" xmlns="http://www.w3.org/2000/svg" xmlns:xlink="http://www.w3.org/1999/xlink">
<g id="graph0" class="graph" transform="scale(1 1) rotate(0) translate(4 400)">
<polygon fill="white" stroke="transparent" points="-4,4 -4,-400 1298.24,-400 1298.24,4 -4,4"/>
<!-- 0 -->
<g id="node1" class="node">
<title>0</title>
<polygon fill="none" stroke="black" points="218.69,-252 161.69,-252 161.69,-216 218.69,-216 218.69,-252"/>
<text text-anchor="middle" x="190.19" y="-230.3" font-family="Times,serif" font-size="14.00">arena</text>
</g>
<!-- 1 -->
<g id="node2" class="node">
<title>1</title>
<polygon fill="none" stroke="black" points="381.69,-396 310.69,-396 310.69,-360 381.69,-360 381.69,-396"/>
<text text-anchor="middle" x="346.19" y="-374.3" font-family="Times,serif" font-size="14.00">liom_cli</text>
</g>
<!-- 2 -->
<g id="node3" class="node">
<title>2</title>
<polygon fill="none" stroke="black" points="351.19,-324 277.19,-324 277.19,-288 351.19,-288 351.19,-324"/>
<text text-anchor="middle" x="314.19" y="-302.3" font-family="Times,serif" font-size="14.00">liom_hir</text>
</g>
<!-- 1&#45;&gt;2 -->
<g id="edge1" class="edge">
<title>1&#45;&gt;2</title>
<path fill="none" stroke="black" d="M338.28,-359.7C334.64,-351.73 330.24,-342.1 326.2,-333.26"/>
<polygon fill="black" stroke="black" points="329.35,-331.74 322.01,-324.1 322.99,-334.65 329.35,-331.74"/>
</g>
<!-- 3 -->
<g id="node4" class="node">
<title>3</title>
<polygon fill="none" stroke="black" points="456.69,-252 355.69,-252 355.69,-216 456.69,-216 456.69,-252"/>
<text text-anchor="middle" x="406.19" y="-230.3" font-family="Times,serif" font-size="14.00">liom_syntax</text>
</g>
<!-- 1&#45;&gt;3 -->
<g id="edge2" class="edge">
<title>1&#45;&gt;3</title>
<path fill="none" stroke="black" d="M353.43,-359.87C363.75,-335.46 382.77,-290.43 394.94,-261.64"/>
<polygon fill="black" stroke="black" points="398.26,-262.76 398.93,-252.19 391.81,-260.04 398.26,-262.76"/>
</g>
<!-- 2&#45;&gt;0 -->
<g id="edge3" class="edge">
<title>2&#45;&gt;0</title>
<path fill="none" stroke="black" d="M283.86,-287.88C267.01,-278.36 245.89,-266.44 227.97,-256.33"/>
<polygon fill="black" stroke="black" points="229.36,-253.09 218.94,-251.23 225.92,-259.19 229.36,-253.09"/>
</g>
<!-- 2&#45;&gt;3 -->
<g id="edge4" class="edge">
<title>2&#45;&gt;3</title>
<path fill="none" stroke="black" d="M336.93,-287.7C348.63,-278.8 363.05,-267.82 375.7,-258.2"/>
<polygon fill="black" stroke="black" points="377.87,-260.94 383.71,-252.1 373.63,-255.37 377.87,-260.94"/>
</g>
<!-- 8 -->
<g id="node9" class="node">
<title>8</title>
<ellipse fill="none" stroke="black" cx="287.19" cy="-234" rx="50.09" ry="18"/>
<text text-anchor="middle" x="287.19" y="-230.3" font-family="Times,serif" font-size="14.00">smol_str</text>
</g>
<!-- 2&#45;&gt;8 -->
<g id="edge5" class="edge">
<title>2&#45;&gt;8</title>
<path fill="none" stroke="black" d="M307.52,-287.7C304.48,-279.81 300.81,-270.3 297.43,-261.55"/>
<polygon fill="black" stroke="black" points="300.65,-260.17 293.79,-252.1 294.12,-262.69 300.65,-260.17"/>
</g>
<!-- 4 -->
<g id="node5" class="node">
<title>4</title>
<polygon fill="none" stroke="black" points="272.19,-180 182.19,-180 182.19,-144 272.19,-144 272.19,-180"/>
<text text-anchor="middle" x="227.19" y="-158.3" font-family="Times,serif" font-size="14.00">liom_lexer</text>
</g>
<!-- 3&#45;&gt;4 -->
<g id="edge7" class="edge">
<title>3&#45;&gt;4</title>
<path fill="none" stroke="black" d="M362.4,-215.88C337.61,-206.18 306.41,-193.98 280.23,-183.74"/>
<polygon fill="black" stroke="black" points="281.43,-180.45 270.84,-180.07 278.88,-186.97 281.43,-180.45"/>
</g>
<!-- 6 -->
<g id="node7" class="node">
<title>6</title>
<polygon fill="none" stroke="black" points="391.69,-180 290.69,-180 290.69,-144 391.69,-144 391.69,-180"/>
<text text-anchor="middle" x="341.19" y="-158.3" font-family="Times,serif" font-size="14.00">liom_parser</text>
</g>
<!-- 3&#45;&gt;6 -->
<g id="edge8" class="edge">
<title>3&#45;&gt;6</title>
<path fill="none" stroke="black" d="M390.13,-215.7C382.25,-207.22 372.64,-196.86 364.02,-187.58"/>
<polygon fill="black" stroke="black" points="366.44,-185.05 357.08,-180.1 361.31,-189.81 366.44,-185.05"/>
</g>
<!-- 9 -->
<g id="node10" class="node">
<title>9</title>
<ellipse fill="none" stroke="blue" cx="472.19" cy="-162" rx="62.29" ry="18"/>
<text text-anchor="middle" x="472.19" y="-158.3" font-family="Times,serif" font-size="14.00">expect&#45;test</text>
</g>
<!-- 3&#45;&gt;9 -->
<g id="edge6" class="edge">
<title>3&#45;&gt;9</title>
<path fill="none" stroke="blue" d="M422.51,-215.7C430.62,-207.09 440.56,-196.55 449.41,-187.17"/>
<polygon fill="blue" stroke="blue" points="452.21,-189.3 456.52,-179.62 447.11,-184.5 452.21,-189.3"/>
</g>
<!-- 10 -->
<g id="node11" class="node">
<title>10</title>
<ellipse fill="none" stroke="black" cx="908.19" cy="-162" rx="39.79" ry="18"/>
<text text-anchor="middle" x="908.19" y="-158.3" font-family="Times,serif" font-size="14.00">rowan</text>
</g>
<!-- 3&#45;&gt;10 -->
<g id="edge9" class="edge">
<title>3&#45;&gt;10</title>
<path fill="none" stroke="black" d="M457.09,-225.9C554.51,-212.32 766.07,-182.82 860.74,-169.62"/>
<polygon fill="black" stroke="black" points="861.46,-173.05 870.88,-168.2 860.49,-166.12 861.46,-173.05"/>
</g>
<!-- 5 -->
<g id="node6" class="node">
<title>5</title>
<polygon fill="none" stroke="black" points="278.19,-108 184.19,-108 184.19,-72 278.19,-72 278.19,-108"/>
<text text-anchor="middle" x="231.19" y="-86.3" font-family="Times,serif" font-size="14.00">liom_token</text>
</g>
<!-- 4&#45;&gt;5 -->
<g id="edge10" class="edge">
<title>4&#45;&gt;5</title>
<path fill="none" stroke="black" d="M222.27,-143.7C221.91,-135.98 222.21,-126.71 223.05,-118.11"/>
<polygon fill="black" stroke="black" points="226.53,-118.47 224.32,-108.1 219.59,-117.58 226.53,-118.47"/>
</g>
<!-- 4&#45;&gt;5 -->
<g id="edge11" class="edge">
<title>4&#45;&gt;5</title>
<path fill="none" stroke="#00cd00" d="M234.1,-143.7C235.33,-135.98 236.09,-126.71 236.24,-118.11"/>
<polygon fill="#00cd00" stroke="#00cd00" points="239.74,-118.06 236.11,-108.1 232.74,-118.15 239.74,-118.06"/>
</g>
<!-- 11 -->
<g id="node12" class="node">
<title>11</title>
<ellipse fill="none" stroke="darkgreen" cx="83.19" cy="-90" rx="83.39" ry="18"/>
<text text-anchor="middle" x="83.19" y="-86.3" font-family="Times,serif" font-size="14.00">regex&#45;automata</text>
</g>
<!-- 4&#45;&gt;11 -->
<g id="edge12" class="edge">
<title>4&#45;&gt;11</title>
<path fill="none" stroke="black" d="M186.07,-143.88C165.13,-134.19 139.95,-122 119.7,-111.77"/>
<polygon fill="black" stroke="black" points="121.27,-108.65 110.77,-107.23 118.09,-114.88 121.27,-108.65"/>
</g>
<!-- 4&#45;&gt;11 -->
<g id="edge13" class="edge">
<title>4&#45;&gt;11</title>
<path fill="none" stroke="#00cd00" d="M197.86,-143.88C178.16,-133.78 151.89,-120.98 129.42,-110.5"/>
<polygon fill="#00cd00" stroke="#00cd00" points="130.6,-107.19 120.06,-106.16 127.66,-113.54 130.6,-107.19"/>
</g>
<!-- 6&#45;&gt;5 -->
<g id="edge15" class="edge">
<title>6&#45;&gt;5</title>
<path fill="none" stroke="black" d="M314.28,-143.88C300.03,-134.81 282.35,-123.55 266.96,-113.76"/>
<polygon fill="black" stroke="black" points="268.52,-110.61 258.21,-108.19 264.76,-116.51 268.52,-110.61"/>
</g>
<!-- 7 -->
<g id="node8" class="node">
<title>7</title>
<polygon fill="none" stroke="black" points="385.69,-108 296.69,-108 296.69,-72 385.69,-72 385.69,-108"/>
<text text-anchor="middle" x="341.19" y="-86.3" font-family="Times,serif" font-size="14.00">liom_node</text>
</g>
<!-- 6&#45;&gt;7 -->
<g id="edge14" class="edge">
<title>6&#45;&gt;7</title>
<path fill="none" stroke="black" d="M341.19,-143.7C341.19,-135.98 341.19,-126.71 341.19,-118.11"/>
<polygon fill="black" stroke="black" points="344.69,-118.1 341.19,-108.1 337.69,-118.1 344.69,-118.1"/>
</g>
<!-- 12 -->
<g id="node13" class="node">
<title>12</title>
<ellipse fill="none" stroke="blue" cx="460.19" cy="-90" rx="56.59" ry="18"/>
<text text-anchor="middle" x="460.19" y="-86.3" font-family="Times,serif" font-size="14.00">dissimilar</text>
</g>
<!-- 9&#45;&gt;12 -->
<g id="edge16" class="edge">
<title>9&#45;&gt;12</title>
<path fill="none" stroke="blue" d="M469.23,-143.7C467.9,-135.98 466.31,-126.71 464.84,-118.11"/>
<polygon fill="blue" stroke="blue" points="468.26,-117.37 463.12,-108.1 461.36,-118.55 468.26,-117.37"/>
</g>
<!-- 13 -->
<g id="node14" class="node">
<title>13</title>
<ellipse fill="none" stroke="blue" cx="587.19" cy="-90" rx="52.79" ry="18"/>
<text text-anchor="middle" x="587.19" y="-86.3" font-family="Times,serif" font-size="14.00">once_cell</text>
</g>
<!-- 9&#45;&gt;13 -->
<g id="edge17" class="edge">
<title>9&#45;&gt;13</title>
<path fill="none" stroke="blue" d="M497.71,-145.46C514.17,-135.45 535.75,-122.32 553.59,-111.46"/>
<polygon fill="blue" stroke="blue" points="555.81,-114.2 562.53,-106.01 552.17,-108.22 555.81,-114.2"/>
</g>
<!-- 14 -->
<g id="node15" class="node">
<title>14</title>
<ellipse fill="none" stroke="black" cx="708.19" cy="-90" rx="50.89" ry="18"/>
<text text-anchor="middle" x="708.19" y="-86.3" font-family="Times,serif" font-size="14.00">countme</text>
</g>
<!-- 10&#45;&gt;14 -->
<g id="edge18" class="edge">
<title>10&#45;&gt;14</title>
<path fill="none" stroke="black" d="M877.82,-150.37C844.51,-138.71 790.76,-119.9 752.7,-106.58"/>
<polygon fill="black" stroke="black" points="753.49,-103.15 742.89,-103.15 751.18,-109.75 753.49,-103.15"/>
</g>
<!-- 15 -->
<g id="node16" class="node">
<title>15</title>
<ellipse fill="none" stroke="black" cx="838.19" cy="-90" rx="61.99" ry="18"/>
<text text-anchor="middle" x="838.19" y="-86.3" font-family="Times,serif" font-size="14.00">hashbrown</text>
</g>
<!-- 10&#45;&gt;15 -->
<g id="edge19" class="edge">
<title>10&#45;&gt;15</title>
<path fill="none" stroke="black" d="M892.31,-145.12C883.44,-136.24 872.2,-125.01 862.27,-115.08"/>
<polygon fill="black" stroke="black" points="864.54,-112.39 854.99,-107.8 859.59,-117.34 864.54,-112.39"/>
</g>
<!-- 16 -->
<g id="node17" class="node">
<title>16</title>
<ellipse fill="none" stroke="black" cx="978.19" cy="-90" rx="59.59" ry="18"/>
<text text-anchor="middle" x="978.19" y="-86.3" font-family="Times,serif" font-size="14.00">memoffset</text>
</g>
<!-- 10&#45;&gt;16 -->
<g id="edge20" class="edge">
<title>10&#45;&gt;16</title>
<path fill="none" stroke="black" d="M924.08,-145.12C932.95,-136.24 944.18,-125.01 954.12,-115.08"/>
<polygon fill="black" stroke="black" points="956.8,-117.34 961.4,-107.8 951.85,-112.39 956.8,-117.34"/>
</g>
<!-- 17 -->
<g id="node18" class="node">
<title>17</title>
<ellipse fill="none" stroke="black" cx="1116.19" cy="-90" rx="59.59" ry="18"/>
<text text-anchor="middle" x="1116.19" y="-86.3" font-family="Times,serif" font-size="14.00">rustc&#45;hash</text>
</g>
<!-- 10&#45;&gt;17 -->
<g id="edge21" class="edge">
<title>10&#45;&gt;17</title>
<path fill="none" stroke="black" d="M939.33,-150.52C973.39,-139.06 1028.4,-120.54 1068.03,-107.21"/>
<polygon fill="black" stroke="black" points="1069.39,-110.44 1077.76,-103.94 1067.16,-103.81 1069.39,-110.44"/>
</g>
<!-- 18 -->
<g id="node19" class="node">
<title>18</title>
<ellipse fill="none" stroke="black" cx="1244.19" cy="-90" rx="50.09" ry="18"/>
<text text-anchor="middle" x="1244.19" y="-86.3" font-family="Times,serif" font-size="14.00">text&#45;size</text>
</g>
<!-- 10&#45;&gt;18 -->
<g id="edge22" class="edge">
<title>10&#45;&gt;18</title>
<path fill="none" stroke="black" d="M945.16,-155.03C998.49,-146.18 1099.95,-128.39 1185.19,-108 1189.22,-107.04 1193.38,-105.98 1197.54,-104.87"/>
<polygon fill="black" stroke="black" points="1198.47,-108.24 1207.19,-102.22 1196.62,-101.49 1198.47,-108.24"/>
</g>
<!-- 19 -->
<g id="node20" class="node">
<title>19</title>
<ellipse fill="none" stroke="darkgreen" stroke-dasharray="5,2" cx="83.19" cy="-18" rx="70.39" ry="18"/>
<text text-anchor="middle" x="83.19" y="-14.3" font-family="Times,serif" font-size="14.00">regex&#45;syntax</text>
</g>
<!-- 11&#45;&gt;19 -->
<g id="edge23" class="edge">
<title>11&#45;&gt;19</title>
<path fill="none" stroke="darkgreen" stroke-dasharray="1,5" d="M83.19,-71.7C83.19,-63.98 83.19,-54.71 83.19,-46.11"/>
<polygon fill="darkgreen" stroke="darkgreen" points="86.69,-46.1 83.19,-36.1 79.69,-46.1 86.69,-46.1"/>
</g>
<!-- 20 -->
<g id="node21" class="node">
<title>20</title>
<ellipse fill="none" stroke="#00cd00" cx="978.19" cy="-18" rx="45.49" ry="18"/>
<text text-anchor="middle" x="978.19" y="-14.3" font-family="Times,serif" font-size="14.00">autocfg</text>
</g>
<!-- 16&#45;&gt;20 -->
<g id="edge24" class="edge">
<title>16&#45;&gt;20</title>
<path fill="none" stroke="#00cd00" d="M978.19,-71.7C978.19,-63.98 978.19,-54.71 978.19,-46.11"/>
<polygon fill="#00cd00" stroke="#00cd00" points="981.69,-46.1 978.19,-36.1 974.69,-46.1 981.69,-46.1"/>
</g>
</g>
</svg>
