<?xml version="1.0" encoding="UTF-8" standalone="no"?>
<!DOCTYPE svg PUBLIC "-//W3C//DTD SVG 1.1//EN"
 "http://www.w3.org/Graphics/SVG/1.1/DTD/svg11.dtd">
<!-- Generated by graphviz version 12.2.1 (0)
 -->
<!-- Pages: 1 -->
<svg width="1553pt" height="548pt"
 viewBox="0.00 0.00 1553.08 548.00" xmlns="http://www.w3.org/2000/svg" xmlns:xlink="http://www.w3.org/1999/xlink">
<g id="graph0" class="graph" transform="scale(1 1) rotate(0) translate(4 544)">
<polygon fill="white" stroke="none" points="-4,4 -4,-544 1549.08,-544 1549.08,4 -4,4"/>
<!-- 0 -->
<g id="node1" class="node">
<title>0</title>
<polygon fill="none" stroke="black" points="352.86,-396 296.36,-396 296.36,-360 352.86,-360 352.86,-396"/>
<text text-anchor="middle" x="324.61" y="-373.32" font-family="Times,serif" font-size="14.00">arena</text>
</g>
<!-- 1 -->
<g id="node2" class="node">
<title>1</title>
<polygon fill="none" stroke="black" points="509.61,-540 439.61,-540 439.61,-504 509.61,-504 509.61,-540"/>
<text text-anchor="middle" x="474.61" y="-517.33" font-family="Times,serif" font-size="14.00">liom_cli</text>
</g>
<!-- 2 -->
<g id="node3" class="node">
<title>2</title>
<polygon fill="none" stroke="black" points="499.49,-468 425.74,-468 425.74,-432 499.49,-432 499.49,-468"/>
<text text-anchor="middle" x="462.61" y="-445.32" font-family="Times,serif" font-size="14.00">liom_hir</text>
</g>
<!-- 1&#45;&gt;2 -->
<g id="edge1" class="edge">
<title>1&#45;&gt;2</title>
<path fill="none" stroke="black" d="M471.65,-503.7C470.38,-496.32 468.88,-487.52 467.46,-479.25"/>
<polygon fill="black" stroke="black" points="470.94,-478.86 465.8,-469.6 464.04,-480.04 470.94,-478.86"/>
</g>
<!-- 3 -->
<g id="node4" class="node">
<title>3</title>
<polygon fill="none" stroke="black" points="596.99,-396 496.24,-396 496.24,-360 596.99,-360 596.99,-396"/>
<text text-anchor="middle" x="546.61" y="-373.32" font-family="Times,serif" font-size="14.00">liom_syntax</text>
</g>
<!-- 1&#45;&gt;3 -->
<g id="edge2" class="edge">
<title>1&#45;&gt;3</title>
<path fill="none" stroke="black" d="M486.7,-503.77C493.57,-493.62 502.07,-480.37 508.61,-468 519.11,-448.17 529,-424.82 536.05,-407.01"/>
<polygon fill="black" stroke="black" points="539.24,-408.46 539.61,-397.87 532.72,-405.92 539.24,-408.46"/>
</g>
<!-- 2&#45;&gt;0 -->
<g id="edge3" class="edge">
<title>2&#45;&gt;0</title>
<path fill="none" stroke="black" d="M428.15,-431.52C408.43,-421.52 383.65,-408.95 363.27,-398.61"/>
<polygon fill="black" stroke="black" points="364.92,-395.52 354.42,-394.12 361.76,-401.76 364.92,-395.52"/>
</g>
<!-- 2&#45;&gt;3 -->
<g id="edge4" class="edge">
<title>2&#45;&gt;3</title>
<path fill="none" stroke="black" d="M483.38,-431.7C493.58,-423.2 506.04,-412.81 517.2,-403.51"/>
<polygon fill="black" stroke="black" points="519.19,-406.41 524.64,-397.32 514.71,-401.03 519.19,-406.41"/>
</g>
<!-- 9 -->
<g id="node10" class="node">
<title>9</title>
<ellipse fill="none" stroke="black" cx="424.61" cy="-378" rx="53.84" ry="18"/>
<text text-anchor="middle" x="424.61" y="-373.32" font-family="Times,serif" font-size="14.00">smol_str</text>
</g>
<!-- 2&#45;&gt;9 -->
<g id="edge5" class="edge">
<title>2&#45;&gt;9</title>
<path fill="none" stroke="black" d="M453.22,-431.7C449.03,-423.98 444,-414.71 439.33,-406.11"/>
<polygon fill="black" stroke="black" points="442.47,-404.55 434.62,-397.43 436.32,-407.89 442.47,-404.55"/>
</g>
<!-- 4 -->
<g id="node5" class="node">
<title>4</title>
<polygon fill="none" stroke="black" points="286.36,-324 196.86,-324 196.86,-288 286.36,-288 286.36,-324"/>
<text text-anchor="middle" x="241.61" y="-301.32" font-family="Times,serif" font-size="14.00">liom_lexer</text>
</g>
<!-- 3&#45;&gt;4 -->
<g id="edge7" class="edge">
<title>3&#45;&gt;4</title>
<path fill="none" stroke="black" d="M495.85,-362.04C493.07,-361.32 490.31,-360.64 487.61,-360 406.6,-340.78 381.85,-344.7 297.71,-324.35"/>
<polygon fill="black" stroke="black" points="298.6,-320.96 288.05,-321.96 296.92,-327.76 298.6,-320.96"/>
</g>
<!-- 6 -->
<g id="node7" class="node">
<title>6</title>
<polygon fill="none" stroke="black" points="404.61,-324 304.61,-324 304.61,-288 404.61,-288 404.61,-324"/>
<text text-anchor="middle" x="354.61" y="-301.32" font-family="Times,serif" font-size="14.00">liom_parser</text>
</g>
<!-- 3&#45;&gt;6 -->
<g id="edge8" class="edge">
<title>3&#45;&gt;6</title>
<path fill="none" stroke="black" d="M498.66,-359.52C472.67,-350.04 440.36,-338.26 412.93,-328.26"/>
<polygon fill="black" stroke="black" points="414.31,-325.04 403.71,-324.9 411.91,-331.61 414.31,-325.04"/>
</g>
<!-- 10 -->
<g id="node11" class="node">
<title>10</title>
<ellipse fill="none" stroke="blue" cx="546.61" cy="-306" rx="66.99" ry="18"/>
<text text-anchor="middle" x="546.61" y="-301.32" font-family="Times,serif" font-size="14.00">expect&#45;test</text>
</g>
<!-- 3&#45;&gt;10 -->
<g id="edge6" class="edge">
<title>3&#45;&gt;10</title>
<path fill="none" stroke="blue" d="M546.61,-359.7C546.61,-352.41 546.61,-343.73 546.61,-335.54"/>
<polygon fill="blue" stroke="blue" points="550.11,-335.62 546.61,-325.62 543.11,-335.62 550.11,-335.62"/>
</g>
<!-- 11 -->
<g id="node12" class="node">
<title>11</title>
<ellipse fill="none" stroke="black" cx="864.61" cy="-306" rx="42.26" ry="18"/>
<text text-anchor="middle" x="864.61" y="-301.32" font-family="Times,serif" font-size="14.00">rowan</text>
</g>
<!-- 3&#45;&gt;11 -->
<g id="edge9" class="edge">
<title>3&#45;&gt;11</title>
<path fill="none" stroke="black" d="M597.35,-365.83C657.81,-352.52 758.04,-330.46 817.06,-317.47"/>
<polygon fill="black" stroke="black" points="817.44,-320.97 826.46,-315.4 815.94,-314.13 817.44,-320.97"/>
</g>
<!-- 5 -->
<g id="node6" class="node">
<title>5</title>
<polygon fill="none" stroke="black" points="290.24,-252 196.99,-252 196.99,-216 290.24,-216 290.24,-252"/>
<text text-anchor="middle" x="243.61" y="-229.32" font-family="Times,serif" font-size="14.00">liom_token</text>
</g>
<!-- 4&#45;&gt;5 -->
<g id="edge10" class="edge">
<title>4&#45;&gt;5</title>
<path fill="none" stroke="black" d="M236.19,-287.7C235.65,-280.41 235.65,-271.73 236.15,-263.54"/>
<polygon fill="black" stroke="black" points="239.63,-263.9 237.09,-253.61 232.66,-263.24 239.63,-263.9"/>
</g>
<!-- 4&#45;&gt;5 -->
<g id="edge11" class="edge">
<title>4&#45;&gt;5</title>
<path fill="none" stroke="#00cd00" d="M248.02,-287.7C248.98,-280.41 249.48,-271.73 249.45,-263.54"/>
<polygon fill="#00cd00" stroke="#00cd00" points="252.95,-263.48 249.08,-253.62 245.95,-263.74 252.95,-263.48"/>
</g>
<!-- 12 -->
<g id="node13" class="node">
<title>12</title>
<ellipse fill="none" stroke="darkgreen" cx="89.61" cy="-234" rx="89.61" ry="18"/>
<text text-anchor="middle" x="89.61" y="-229.32" font-family="Times,serif" font-size="14.00">regex&#45;automata</text>
</g>
<!-- 4&#45;&gt;12 -->
<g id="edge12" class="edge">
<title>4&#45;&gt;12</title>
<path fill="none" stroke="black" d="M197.72,-287.52C176.14,-278.02 150.39,-266.22 129.39,-256.2"/>
<polygon fill="black" stroke="black" points="131.09,-253.14 120.57,-251.96 128.06,-259.45 131.09,-253.14"/>
</g>
<!-- 4&#45;&gt;12 -->
<g id="edge13" class="edge">
<title>4&#45;&gt;12</title>
<path fill="none" stroke="#00cd00" d="M209.58,-287.52C189.23,-277.68 162.57,-265.37 139.51,-255.13"/>
<polygon fill="#00cd00" stroke="#00cd00" points="141.15,-252.03 130.58,-251.2 138.32,-258.44 141.15,-252.03"/>
</g>
<!-- 6&#45;&gt;5 -->
<g id="edge15" class="edge">
<title>6&#45;&gt;5</title>
<path fill="none" stroke="black" d="M326.89,-287.52C312.88,-278.68 295.68,-267.84 280.57,-258.3"/>
<polygon fill="black" stroke="black" points="282.59,-255.44 272.26,-253.07 278.86,-261.36 282.59,-255.44"/>
</g>
<!-- 7 -->
<g id="node8" class="node">
<title>7</title>
<polygon fill="none" stroke="black" points="396.61,-252 308.61,-252 308.61,-216 396.61,-216 396.61,-252"/>
<text text-anchor="middle" x="352.61" y="-229.32" font-family="Times,serif" font-size="14.00">liom_node</text>
</g>
<!-- 6&#45;&gt;7 -->
<g id="edge14" class="edge">
<title>6&#45;&gt;7</title>
<path fill="none" stroke="black" d="M354.12,-287.7C353.91,-280.41 353.66,-271.73 353.43,-263.54"/>
<polygon fill="black" stroke="black" points="356.93,-263.51 353.15,-253.62 349.93,-263.71 356.93,-263.51"/>
</g>
<!-- 8 -->
<g id="node9" class="node">
<title>8</title>
<polygon fill="none" stroke="black" points="592.61,-540 538.61,-540 538.61,-504 592.61,-504 592.61,-540"/>
<text text-anchor="middle" x="565.61" y="-517.33" font-family="Times,serif" font-size="14.00">fuzz</text>
</g>
<!-- 8&#45;&gt;2 -->
<g id="edge17" class="edge">
<title>8&#45;&gt;2</title>
<path fill="none" stroke="black" d="M539.89,-503.52C527.01,-494.76 511.24,-484.04 497.3,-474.58"/>
<polygon fill="black" stroke="black" points="499.5,-471.84 489.26,-469.11 495.57,-477.63 499.5,-471.84"/>
</g>
<!-- 8&#45;&gt;3 -->
<g id="edge18" class="edge">
<title>8&#45;&gt;3</title>
<path fill="none" stroke="black" d="M563.28,-503.59C560.08,-479.61 554.26,-436.14 550.42,-407.42"/>
<polygon fill="black" stroke="black" points="553.9,-407.06 549.1,-397.61 546.96,-407.99 553.9,-407.06"/>
</g>
<!-- 13 -->
<g id="node14" class="node">
<title>13</title>
<ellipse fill="none" stroke="black" cx="1387.61" cy="-450" rx="74.36" ry="18"/>
<text text-anchor="middle" x="1387.61" y="-445.32" font-family="Times,serif" font-size="14.00">libfuzzer&#45;sys</text>
</g>
<!-- 8&#45;&gt;13 -->
<g id="edge16" class="edge">
<title>8&#45;&gt;13</title>
<path fill="none" stroke="black" d="M592.96,-518.67C704.52,-509.17 1127.7,-473.13 1306.79,-457.88"/>
<polygon fill="black" stroke="black" points="1307.05,-461.37 1316.71,-457.04 1306.45,-454.4 1307.05,-461.37"/>
</g>
<!-- 14 -->
<g id="node15" class="node">
<title>14</title>
<ellipse fill="none" stroke="blue" cx="605.61" cy="-234" rx="60.68" ry="18"/>
<text text-anchor="middle" x="605.61" y="-229.32" font-family="Times,serif" font-size="14.00">dissimilar</text>
</g>
<!-- 10&#45;&gt;14 -->
<g id="edge19" class="edge">
<title>10&#45;&gt;14</title>
<path fill="none" stroke="blue" d="M560.9,-288.05C567.85,-279.8 576.37,-269.7 584.09,-260.54"/>
<polygon fill="blue" stroke="blue" points="586.72,-262.85 590.49,-252.95 581.37,-258.34 586.72,-262.85"/>
</g>
<!-- 15 -->
<g id="node16" class="node">
<title>15</title>
<ellipse fill="none" stroke="blue" cx="470.61" cy="-234" rx="56.47" ry="18"/>
<text text-anchor="middle" x="470.61" y="-229.32" font-family="Times,serif" font-size="14.00">once_cell</text>
</g>
<!-- 10&#45;&gt;15 -->
<g id="edge20" class="edge">
<title>10&#45;&gt;15</title>
<path fill="none" stroke="blue" d="M528.6,-288.41C519.14,-279.69 507.36,-268.85 496.9,-259.21"/>
<polygon fill="blue" stroke="blue" points="499.34,-256.7 489.61,-252.5 494.59,-261.84 499.34,-256.7"/>
</g>
<!-- 16 -->
<g id="node17" class="node">
<title>16</title>
<ellipse fill="none" stroke="black" cx="864.61" cy="-234" rx="54.36" ry="18"/>
<text text-anchor="middle" x="864.61" y="-229.32" font-family="Times,serif" font-size="14.00">countme</text>
</g>
<!-- 11&#45;&gt;16 -->
<g id="edge21" class="edge">
<title>11&#45;&gt;16</title>
<path fill="none" stroke="black" d="M864.61,-287.7C864.61,-280.41 864.61,-271.73 864.61,-263.54"/>
<polygon fill="black" stroke="black" points="868.11,-263.62 864.61,-253.62 861.11,-263.62 868.11,-263.62"/>
</g>
<!-- 17 -->
<g id="node18" class="node">
<title>17</title>
<ellipse fill="none" stroke="black" cx="1003.61" cy="-234" rx="66.47" ry="18"/>
<text text-anchor="middle" x="1003.61" y="-229.32" font-family="Times,serif" font-size="14.00">hashbrown</text>
</g>
<!-- 11&#45;&gt;17 -->
<g id="edge22" class="edge">
<title>11&#45;&gt;17</title>
<path fill="none" stroke="black" d="M891.09,-291.67C911.44,-281.42 939.92,-267.08 963.13,-255.39"/>
<polygon fill="black" stroke="black" points="964.67,-258.53 972.02,-250.91 961.52,-252.28 964.67,-258.53"/>
</g>
<!-- 18 -->
<g id="node19" class="node">
<title>18</title>
<ellipse fill="none" stroke="black" cx="1151.61" cy="-234" rx="63.83" ry="18"/>
<text text-anchor="middle" x="1151.61" y="-229.32" font-family="Times,serif" font-size="14.00">rustc&#45;hash</text>
</g>
<!-- 11&#45;&gt;18 -->
<g id="edge23" class="edge">
<title>11&#45;&gt;18</title>
<path fill="none" stroke="black" d="M900.67,-296.21C949.08,-284.4 1035.67,-263.28 1093.38,-249.2"/>
<polygon fill="black" stroke="black" points="1094.16,-252.61 1103.05,-246.85 1092.51,-245.81 1094.16,-252.61"/>
</g>
<!-- 19 -->
<g id="node20" class="node">
<title>19</title>
<ellipse fill="none" stroke="black" cx="738.61" cy="-234" rx="53.84" ry="18"/>
<text text-anchor="middle" x="738.61" y="-229.32" font-family="Times,serif" font-size="14.00">text&#45;size</text>
</g>
<!-- 11&#45;&gt;19 -->
<g id="edge24" class="edge">
<title>11&#45;&gt;19</title>
<path fill="none" stroke="black" d="M839.72,-291.17C821.44,-281.01 796.3,-267.04 775.66,-255.58"/>
<polygon fill="black" stroke="black" points="777.4,-252.54 766.96,-250.75 774,-258.66 777.4,-252.54"/>
</g>
<!-- 20 -->
<g id="node21" class="node">
<title>20</title>
<ellipse fill="none" stroke="darkgreen" stroke-dasharray="5,2" cx="89.61" cy="-162" rx="75.41" ry="18"/>
<text text-anchor="middle" x="89.61" y="-157.32" font-family="Times,serif" font-size="14.00">regex&#45;syntax</text>
</g>
<!-- 12&#45;&gt;20 -->
<g id="edge25" class="edge">
<title>12&#45;&gt;20</title>
<path fill="none" stroke="darkgreen" stroke-dasharray="1,5" d="M89.61,-215.7C89.61,-208.41 89.61,-199.73 89.61,-191.54"/>
<polygon fill="darkgreen" stroke="darkgreen" points="93.11,-191.62 89.61,-181.62 86.11,-191.62 93.11,-191.62"/>
</g>
<!-- 21 -->
<g id="node22" class="node">
<title>21</title>
<ellipse fill="none" stroke="black" cx="1488.61" cy="-378" rx="56.47" ry="18"/>
<text text-anchor="middle" x="1488.61" y="-373.32" font-family="Times,serif" font-size="14.00">arbitrary</text>
</g>
<!-- 13&#45;&gt;21 -->
<g id="edge26" class="edge">
<title>13&#45;&gt;21</title>
<path fill="none" stroke="black" d="M1411.29,-432.59C1424.78,-423.24 1441.87,-411.4 1456.54,-401.23"/>
<polygon fill="black" stroke="black" points="1458.31,-404.26 1464.53,-395.69 1454.32,-398.51 1458.31,-404.26"/>
</g>
<!-- 22 -->
<g id="node23" class="node">
<title>22</title>
<ellipse fill="none" stroke="#00cd00" cx="1387.61" cy="-378" rx="27" ry="18"/>
<text text-anchor="middle" x="1387.61" y="-373.32" font-family="Times,serif" font-size="14.00">cc</text>
</g>
<!-- 13&#45;&gt;22 -->
<g id="edge27" class="edge">
<title>13&#45;&gt;22</title>
<path fill="none" stroke="#00cd00" d="M1387.61,-431.7C1387.61,-424.41 1387.61,-415.73 1387.61,-407.54"/>
<polygon fill="#00cd00" stroke="#00cd00" points="1391.11,-407.62 1387.61,-397.62 1384.11,-407.62 1391.11,-407.62"/>
</g>
<!-- 23 -->
<g id="node24" class="node">
<title>23</title>
<ellipse fill="none" stroke="#00cd00" stroke-dasharray="5,2" cx="1344.61" cy="-306" rx="58.57" ry="18"/>
<text text-anchor="middle" x="1344.61" y="-301.32" font-family="Times,serif" font-size="14.00">jobserver</text>
</g>
<!-- 22&#45;&gt;23 -->
<g id="edge28" class="edge">
<title>22&#45;&gt;23</title>
<path fill="none" stroke="#00cd00" stroke-dasharray="1,5" d="M1377.64,-360.76C1372.74,-352.78 1366.7,-342.95 1361.13,-333.89"/>
<polygon fill="#00cd00" stroke="#00cd00" points="1364.14,-332.1 1355.93,-325.41 1358.18,-335.77 1364.14,-332.1"/>
</g>
<!-- 24 -->
<g id="node25" class="node">
<title>24</title>
<ellipse fill="lightgrey" stroke="#00cd00" stroke-dasharray="5,2" cx="1299.61" cy="-162" rx="29.11" ry="18"/>
<text text-anchor="middle" x="1299.61" y="-157.32" font-family="Times,serif" font-size="14.00">libc</text>
</g>
<!-- 22&#45;&gt;24 -->
<g id="edge29" class="edge">
<title>22&#45;&gt;24</title>
<path fill="none" stroke="#00cd00" stroke-dasharray="1,5" d="M1397.46,-360.97C1403.12,-350.79 1409.68,-337.1 1412.61,-324 1423.32,-276.2 1421.03,-254.4 1390.61,-216 1376.31,-197.95 1354.05,-184.83 1335.12,-176.16"/>
<polygon fill="lightgrey" stroke="#00cd00" points="1336.7,-173.02 1326.13,-172.28 1333.93,-179.45 1336.7,-173.02"/>
</g>
<!-- 25 -->
<g id="node26" class="node">
<title>25</title>
<ellipse fill="none" stroke="#00cd00" cx="1497.61" cy="-306" rx="37.53" ry="18"/>
<text text-anchor="middle" x="1497.61" y="-301.32" font-family="Times,serif" font-size="14.00">shlex</text>
</g>
<!-- 22&#45;&gt;25 -->
<g id="edge30" class="edge">
<title>22&#45;&gt;25</title>
<path fill="none" stroke="#00cd00" d="M1406.77,-364.81C1423.13,-354.4 1446.97,-339.23 1466.13,-327.04"/>
<polygon fill="#00cd00" stroke="#00cd00" points="1467.82,-330.11 1474.37,-321.79 1464.06,-324.2 1467.82,-330.11"/>
</g>
<!-- 23&#45;&gt;24 -->
<g id="edge32" class="edge">
<title>23&#45;&gt;24</title>
<path fill="none" stroke="#00cd00" stroke-dasharray="5,2" d="M1357.98,-288.31C1370.95,-269.96 1386.99,-239.89 1374.61,-216 1365.89,-199.16 1349.09,-186.53 1333.59,-177.83"/>
<polygon fill="lightgrey" stroke="#00cd00" points="1335.52,-174.89 1325.03,-173.37 1332.29,-181.1 1335.52,-174.89"/>
</g>
<!-- 26 -->
<g id="node27" class="node">
<title>26</title>
<ellipse fill="lightgrey" stroke="#00cd00" stroke-dasharray="5,2" cx="1299.61" cy="-234" rx="65.94" ry="18"/>
<text text-anchor="middle" x="1299.61" y="-229.32" font-family="Times,serif" font-size="14.00">getrandom</text>
</g>
<!-- 23&#45;&gt;26 -->
<g id="edge31" class="edge">
<title>23&#45;&gt;26</title>
<path fill="none" stroke="#00cd00" stroke-dasharray="5,2" d="M1333.72,-288.05C1328.58,-280.06 1322.33,-270.33 1316.59,-261.4"/>
<polygon fill="lightgrey" stroke="#00cd00" points="1319.58,-259.58 1311.23,-253.06 1313.69,-263.37 1319.58,-259.58"/>
</g>
<!-- 26&#45;&gt;24 -->
<g id="edge34" class="edge">
<title>26&#45;&gt;24</title>
<path fill="none" stroke="#00cd00" stroke-dasharray="5,2" d="M1261.09,-219.17C1248.89,-206.31 1249.48,-187.35 1262.86,-175.09"/>
<polygon fill="lightgrey" stroke="#00cd00" points="1264.66,-178.1 1270.96,-169.59 1260.72,-172.31 1264.66,-178.1"/>
</g>
<!-- 26&#45;&gt;24 -->
<g id="edge35" class="edge">
<title>26&#45;&gt;24</title>
<path fill="none" stroke="#00cd00" stroke-dasharray="5,2" d="M1271.01,-217.46C1264.8,-206.98 1264.21,-193.08 1269.24,-181.94"/>
<polygon fill="lightgrey" stroke="#00cd00" points="1271.95,-184.19 1274.6,-173.93 1266.13,-180.3 1271.95,-184.19"/>
</g>
<!-- 26&#45;&gt;24 -->
<g id="edge36" class="edge">
<title>26&#45;&gt;24</title>
<path fill="none" stroke="#00cd00" stroke-dasharray="5,2" d="M1282.09,-216.41C1279.34,-208 1278.67,-197.6 1280.08,-188.22"/>
<polygon fill="lightgrey" stroke="#00cd00" points="1283.46,-189.13 1282.61,-178.57 1276.69,-187.36 1283.46,-189.13"/>
</g>
<!-- 26&#45;&gt;24 -->
<g id="edge37" class="edge">
<title>26&#45;&gt;24</title>
<path fill="none" stroke="#00cd00" stroke-dasharray="5,2" d="M1293.7,-215.7C1292.95,-208.41 1292.7,-199.73 1292.97,-191.54"/>
<polygon fill="lightgrey" stroke="#00cd00" points="1296.46,-191.82 1293.62,-181.61 1289.47,-191.36 1296.46,-191.82"/>
</g>
<!-- 26&#45;&gt;24 -->
<g id="edge38" class="edge">
<title>26&#45;&gt;24</title>
<path fill="none" stroke="#00cd00" stroke-dasharray="5,2" d="M1305.53,-215.7C1306.28,-208.41 1306.53,-199.73 1306.26,-191.54"/>
<polygon fill="lightgrey" stroke="#00cd00" points="1309.76,-191.36 1305.61,-181.61 1302.77,-191.82 1309.76,-191.36"/>
</g>
<!-- 26&#45;&gt;24 -->
<g id="edge39" class="edge">
<title>26&#45;&gt;24</title>
<path fill="none" stroke="#00cd00" stroke-dasharray="5,2" d="M1317.13,-216.41C1319.89,-208 1320.56,-197.6 1319.14,-188.22"/>
<polygon fill="lightgrey" stroke="#00cd00" points="1322.54,-187.36 1316.62,-178.57 1315.77,-189.13 1322.54,-187.36"/>
</g>
<!-- 26&#45;&gt;24 -->
<g id="edge40" class="edge">
<title>26&#45;&gt;24</title>
<path fill="none" stroke="#00cd00" stroke-dasharray="5,2" d="M1328.21,-217.46C1334.43,-206.98 1335.02,-193.08 1329.99,-181.94"/>
<polygon fill="lightgrey" stroke="#00cd00" points="1333.09,-180.3 1324.62,-173.93 1327.28,-184.19 1333.09,-180.3"/>
</g>
<!-- 26&#45;&gt;24 -->
<g id="edge41" class="edge">
<title>26&#45;&gt;24</title>
<path fill="none" stroke="#00cd00" stroke-dasharray="5,2" d="M1338.14,-219.17C1350.34,-206.31 1349.74,-187.35 1336.37,-175.09"/>
<polygon fill="lightgrey" stroke="#00cd00" points="1338.51,-172.31 1328.27,-169.59 1334.57,-178.1 1338.51,-172.31"/>
</g>
<!-- 27 -->
<g id="node28" class="node">
<title>27</title>
<ellipse fill="lightgrey" stroke="#00cd00" stroke-dasharray="5,2" cx="1215.61" cy="-162" rx="36.48" ry="18"/>
<text text-anchor="middle" x="1215.61" y="-157.32" font-family="Times,serif" font-size="14.00">cfg&#45;if</text>
</g>
<!-- 26&#45;&gt;27 -->
<g id="edge33" class="edge">
<title>26&#45;&gt;27</title>
<path fill="none" stroke="#00cd00" stroke-dasharray="5,2" d="M1279.71,-216.41C1268.57,-207.13 1254.54,-195.44 1242.45,-185.36"/>
<polygon fill="lightgrey" stroke="#00cd00" points="1244.75,-182.72 1234.82,-179.01 1240.26,-188.1 1244.75,-182.72"/>
</g>
<!-- 28 -->
<g id="node29" class="node">
<title>28</title>
<ellipse fill="lightgrey" stroke="#00cd00" stroke-dasharray="5,2" cx="1044.61" cy="-162" rx="31.22" ry="18"/>
<text text-anchor="middle" x="1044.61" y="-157.32" font-family="Times,serif" font-size="14.00">r&#45;efi</text>
</g>
<!-- 26&#45;&gt;28 -->
<g id="edge42" class="edge">
<title>26&#45;&gt;28</title>
<path fill="none" stroke="#00cd00" stroke-dasharray="5,2" d="M1250.29,-221.81C1196.79,-209.5 1114.98,-190.12 1084.61,-180 1082.79,-179.39 1080.94,-178.74 1079.08,-178.05"/>
<polygon fill="lightgrey" stroke="#00cd00" points="1080.48,-174.84 1069.9,-174.44 1077.92,-181.36 1080.48,-174.84"/>
</g>
<!-- 29 -->
<g id="node30" class="node">
<title>29</title>
<ellipse fill="lightgrey" stroke="#00cd00" stroke-dasharray="5,2" cx="1127.61" cy="-162" rx="33.85" ry="18"/>
<text text-anchor="middle" x="1127.61" y="-157.32" font-family="Times,serif" font-size="14.00">wasi</text>
</g>
<!-- 26&#45;&gt;29 -->
<g id="edge43" class="edge">
<title>26&#45;&gt;29</title>
<path fill="none" stroke="#00cd00" stroke-dasharray="5,2" d="M1263.98,-218.5C1234.92,-206.67 1194.02,-190.03 1164.61,-178.06"/>
<polygon fill="lightgrey" stroke="#00cd00" points="1165.93,-174.81 1155.35,-174.29 1163.29,-181.3 1165.93,-174.81"/>
</g>
<!-- 30 -->
<g id="node31" class="node">
<title>30</title>
<ellipse fill="lightgrey" stroke="#00cd00" stroke-dasharray="5,2" cx="1127.61" cy="-90" rx="82.77" ry="18"/>
<text text-anchor="middle" x="1127.61" y="-85.33" font-family="Times,serif" font-size="14.00">wit&#45;bindgen&#45;rt</text>
</g>
<!-- 29&#45;&gt;30 -->
<g id="edge44" class="edge">
<title>29&#45;&gt;30</title>
<path fill="none" stroke="#00cd00" stroke-dasharray="5,2" d="M1127.61,-143.7C1127.61,-136.41 1127.61,-127.73 1127.61,-119.54"/>
<polygon fill="lightgrey" stroke="#00cd00" points="1131.11,-119.62 1127.61,-109.62 1124.11,-119.62 1131.11,-119.62"/>
</g>
<!-- 31 -->
<g id="node32" class="node">
<title>31</title>
<ellipse fill="lightgrey" stroke="#00cd00" stroke-dasharray="5,2" cx="1127.61" cy="-18" rx="48.58" ry="18"/>
<text text-anchor="middle" x="1127.61" y="-13.32" font-family="Times,serif" font-size="14.00">bitflags</text>
</g>
<!-- 30&#45;&gt;31 -->
<g id="edge45" class="edge">
<title>30&#45;&gt;31</title>
<path fill="none" stroke="#00cd00" stroke-dasharray="1,5" d="M1127.61,-71.7C1127.61,-64.41 1127.61,-55.73 1127.61,-47.54"/>
<polygon fill="lightgrey" stroke="#00cd00" points="1131.11,-47.62 1127.61,-37.62 1124.11,-47.62 1131.11,-47.62"/>
</g>
</g>
</svg>
