<?xml version="1.0" encoding="UTF-8" standalone="no"?>
<!DOCTYPE svg PUBLIC "-//W3C//DTD SVG 1.1//EN"
 "http://www.w3.org/Graphics/SVG/1.1/DTD/svg11.dtd">
<!-- Generated by graphviz version 9.0.0 (0)
 -->
<!-- Pages: 1 -->
<svg width="1580pt" height="404pt"
 viewBox="0.00 0.00 1580.41 404.00" xmlns="http://www.w3.org/2000/svg" xmlns:xlink="http://www.w3.org/1999/xlink">
<g id="graph0" class="graph" transform="scale(1 1) rotate(0) translate(4 400)">
<polygon fill="white" stroke="none" points="-4,4 -4,-400 1576.41,-400 1576.41,4 -4,4"/>
<!-- 0 -->
<g id="node1" class="node">
<title>0</title>
<polygon fill="none" stroke="black" points="788.09,-252 731.59,-252 731.59,-216 788.09,-216 788.09,-252"/>
<text text-anchor="middle" x="759.84" y="-229.32" font-family="Times,serif" font-size="14.00">arena</text>
</g>
<!-- 1 -->
<g id="node2" class="node">
<title>1</title>
<polygon fill="none" stroke="black" points="944.84,-396 874.84,-396 874.84,-360 944.84,-360 944.84,-396"/>
<text text-anchor="middle" x="909.84" y="-373.32" font-family="Times,serif" font-size="14.00">liom_cli</text>
</g>
<!-- 2 -->
<g id="node3" class="node">
<title>2</title>
<polygon fill="none" stroke="black" points="934.71,-324 860.96,-324 860.96,-288 934.71,-288 934.71,-324"/>
<text text-anchor="middle" x="897.84" y="-301.32" font-family="Times,serif" font-size="14.00">liom_hir</text>
</g>
<!-- 1&#45;&gt;2 -->
<g id="edge1" class="edge">
<title>1&#45;&gt;2</title>
<path fill="none" stroke="black" d="M906.87,-359.7C905.61,-352.32 904.1,-343.52 902.68,-335.25"/>
<polygon fill="black" stroke="black" points="906.17,-334.86 901.03,-325.6 899.27,-336.04 906.17,-334.86"/>
</g>
<!-- 3 -->
<g id="node4" class="node">
<title>3</title>
<polygon fill="none" stroke="black" points="1032.21,-252 931.46,-252 931.46,-216 1032.21,-216 1032.21,-252"/>
<text text-anchor="middle" x="981.84" y="-229.32" font-family="Times,serif" font-size="14.00">liom_syntax</text>
</g>
<!-- 1&#45;&gt;3 -->
<g id="edge2" class="edge">
<title>1&#45;&gt;3</title>
<path fill="none" stroke="black" d="M921.93,-359.77C928.79,-349.62 937.29,-336.37 943.84,-324 954.34,-304.17 964.22,-280.82 971.28,-263.01"/>
<polygon fill="black" stroke="black" points="974.47,-264.46 974.83,-253.87 967.94,-261.92 974.47,-264.46"/>
</g>
<!-- 2&#45;&gt;0 -->
<g id="edge3" class="edge">
<title>2&#45;&gt;0</title>
<path fill="none" stroke="black" d="M863.37,-287.52C843.66,-277.52 818.87,-264.95 798.5,-254.61"/>
<polygon fill="black" stroke="black" points="800.15,-251.52 789.64,-250.12 796.98,-257.76 800.15,-251.52"/>
</g>
<!-- 2&#45;&gt;3 -->
<g id="edge4" class="edge">
<title>2&#45;&gt;3</title>
<path fill="none" stroke="black" d="M918.6,-287.7C928.8,-279.2 941.26,-268.81 952.42,-259.51"/>
<polygon fill="black" stroke="black" points="954.42,-262.41 959.86,-253.32 949.94,-257.03 954.42,-262.41"/>
</g>
<!-- 9 -->
<g id="node10" class="node">
<title>9</title>
<ellipse fill="none" stroke="black" cx="859.84" cy="-234" rx="53.84" ry="18"/>
<text text-anchor="middle" x="859.84" y="-229.32" font-family="Times,serif" font-size="14.00">smol_str</text>
</g>
<!-- 2&#45;&gt;9 -->
<g id="edge5" class="edge">
<title>2&#45;&gt;9</title>
<path fill="none" stroke="black" d="M888.45,-287.7C884.26,-279.98 879.23,-270.71 874.56,-262.11"/>
<polygon fill="black" stroke="black" points="877.69,-260.55 869.85,-253.43 871.54,-263.89 877.69,-260.55"/>
</g>
<!-- 4 -->
<g id="node5" class="node">
<title>4</title>
<polygon fill="none" stroke="black" points="1026.59,-180 937.09,-180 937.09,-144 1026.59,-144 1026.59,-180"/>
<text text-anchor="middle" x="981.84" y="-157.32" font-family="Times,serif" font-size="14.00">liom_lexer</text>
</g>
<!-- 3&#45;&gt;4 -->
<g id="edge7" class="edge">
<title>3&#45;&gt;4</title>
<path fill="none" stroke="black" d="M981.84,-215.7C981.84,-208.41 981.84,-199.73 981.84,-191.54"/>
<polygon fill="black" stroke="black" points="985.34,-191.62 981.84,-181.62 978.34,-191.62 985.34,-191.62"/>
</g>
<!-- 6 -->
<g id="node7" class="node">
<title>6</title>
<polygon fill="none" stroke="black" points="897.84,-180 797.84,-180 797.84,-144 897.84,-144 897.84,-180"/>
<text text-anchor="middle" x="847.84" y="-157.32" font-family="Times,serif" font-size="14.00">liom_parser</text>
</g>
<!-- 3&#45;&gt;6 -->
<g id="edge8" class="edge">
<title>3&#45;&gt;6</title>
<path fill="none" stroke="black" d="M948.37,-215.52C930.97,-206.43 909.51,-195.22 890.89,-185.49"/>
<polygon fill="black" stroke="black" points="892.71,-182.49 882.22,-180.96 889.46,-188.69 892.71,-182.49"/>
</g>
<!-- 10 -->
<g id="node11" class="node">
<title>10</title>
<ellipse fill="none" stroke="blue" cx="1169.84" cy="-162" rx="66.99" ry="18"/>
<text text-anchor="middle" x="1169.84" y="-157.32" font-family="Times,serif" font-size="14.00">expect&#45;test</text>
</g>
<!-- 3&#45;&gt;10 -->
<g id="edge6" class="edge">
<title>3&#45;&gt;10</title>
<path fill="none" stroke="blue" d="M1028.79,-215.52C1056.95,-205.03 1092.7,-191.72 1121.16,-181.12"/>
<polygon fill="blue" stroke="blue" points="1122.12,-184.5 1130.27,-177.73 1119.67,-177.94 1122.12,-184.5"/>
</g>
<!-- 11 -->
<g id="node12" class="node">
<title>11</title>
<ellipse fill="none" stroke="black" cx="392.84" cy="-162" rx="42.26" ry="18"/>
<text text-anchor="middle" x="392.84" y="-157.32" font-family="Times,serif" font-size="14.00">rowan</text>
</g>
<!-- 3&#45;&gt;11 -->
<g id="edge9" class="edge">
<title>3&#45;&gt;11</title>
<path fill="none" stroke="black" d="M931.13,-217.76C928.34,-217.12 925.56,-216.52 922.84,-216 750.68,-182.87 542.82,-169.74 446.57,-165.16"/>
<polygon fill="black" stroke="black" points="446.79,-161.67 436.63,-164.7 446.46,-168.66 446.79,-161.67"/>
</g>
<!-- 5 -->
<g id="node6" class="node">
<title>5</title>
<polygon fill="none" stroke="black" points="894.46,-108 801.21,-108 801.21,-72 894.46,-72 894.46,-108"/>
<text text-anchor="middle" x="847.84" y="-85.33" font-family="Times,serif" font-size="14.00">liom_token</text>
</g>
<!-- 4&#45;&gt;5 -->
<g id="edge10" class="edge">
<title>4&#45;&gt;5</title>
<path fill="none" stroke="black" d="M942.44,-143.52C924.28,-134.51 902.91,-123.42 885.04,-113.76"/>
<polygon fill="black" stroke="black" points="886.75,-110.71 876.3,-108.99 883.4,-116.85 886.75,-110.71"/>
</g>
<!-- 4&#45;&gt;5 -->
<g id="edge11" class="edge">
<title>4&#45;&gt;5</title>
<path fill="none" stroke="#00cd00" d="M954.3,-143.52C937.75,-134.39 916.31,-123.11 896.97,-113.35"/>
<polygon fill="#00cd00" stroke="#00cd00" points="898.65,-110.28 888.15,-108.94 895.52,-116.54 898.65,-110.28"/>
</g>
<!-- 12 -->
<g id="node13" class="node">
<title>12</title>
<ellipse fill="none" stroke="darkgreen" cx="1001.84" cy="-90" rx="89.61" ry="18"/>
<text text-anchor="middle" x="1001.84" y="-85.33" font-family="Times,serif" font-size="14.00">regex&#45;automata</text>
</g>
<!-- 4&#45;&gt;12 -->
<g id="edge12" class="edge">
<title>4&#45;&gt;12</title>
<path fill="none" stroke="black" d="M980.87,-143.7C982.24,-136.15 984.59,-127.12 987.31,-118.68"/>
<polygon fill="black" stroke="black" points="990.51,-120.13 990.55,-109.53 983.92,-117.79 990.51,-120.13"/>
</g>
<!-- 4&#45;&gt;12 -->
<g id="edge13" class="edge">
<title>4&#45;&gt;12</title>
<path fill="none" stroke="#00cd00" d="M992.7,-143.7C995.57,-136.32 998.32,-127.52 1000.4,-119.25"/>
<polygon fill="#00cd00" stroke="#00cd00" points="1003.8,-120.1 1002.52,-109.58 996.96,-118.6 1003.8,-120.1"/>
</g>
<!-- 6&#45;&gt;5 -->
<g id="edge15" class="edge">
<title>6&#45;&gt;5</title>
<path fill="none" stroke="black" d="M847.84,-143.7C847.84,-136.41 847.84,-127.73 847.84,-119.54"/>
<polygon fill="black" stroke="black" points="851.34,-119.62 847.84,-109.62 844.34,-119.62 851.34,-119.62"/>
</g>
<!-- 7 -->
<g id="node8" class="node">
<title>7</title>
<polygon fill="none" stroke="black" points="782.84,-108 694.84,-108 694.84,-72 782.84,-72 782.84,-108"/>
<text text-anchor="middle" x="738.84" y="-85.33" font-family="Times,serif" font-size="14.00">liom_node</text>
</g>
<!-- 6&#45;&gt;7 -->
<g id="edge14" class="edge">
<title>6&#45;&gt;7</title>
<path fill="none" stroke="black" d="M820.61,-143.52C806.86,-134.68 789.97,-123.84 775.12,-114.3"/>
<polygon fill="black" stroke="black" points="777.29,-111.54 766.99,-109.08 773.51,-117.43 777.29,-111.54"/>
</g>
<!-- 8 -->
<g id="node9" class="node">
<title>8</title>
<polygon fill="none" stroke="black" points="1027.84,-396 973.84,-396 973.84,-360 1027.84,-360 1027.84,-396"/>
<text text-anchor="middle" x="1000.84" y="-373.32" font-family="Times,serif" font-size="14.00">fuzz</text>
</g>
<!-- 8&#45;&gt;2 -->
<g id="edge17" class="edge">
<title>8&#45;&gt;2</title>
<path fill="none" stroke="black" d="M975.11,-359.52C962.24,-350.76 946.46,-340.04 932.53,-330.58"/>
<polygon fill="black" stroke="black" points="934.73,-327.84 924.49,-325.11 930.79,-333.63 934.73,-327.84"/>
</g>
<!-- 8&#45;&gt;3 -->
<g id="edge18" class="edge">
<title>8&#45;&gt;3</title>
<path fill="none" stroke="black" d="M998.51,-359.59C995.3,-335.61 989.48,-292.14 985.64,-263.42"/>
<polygon fill="black" stroke="black" points="989.12,-263.06 984.33,-253.61 982.19,-263.99 989.12,-263.06"/>
</g>
<!-- 13 -->
<g id="node14" class="node">
<title>13</title>
<ellipse fill="none" stroke="black" cx="1326.84" cy="-306" rx="74.36" ry="18"/>
<text text-anchor="middle" x="1326.84" y="-301.32" font-family="Times,serif" font-size="14.00">libfuzzer&#45;sys</text>
</g>
<!-- 8&#45;&gt;13 -->
<g id="edge16" class="edge">
<title>8&#45;&gt;13</title>
<path fill="none" stroke="black" d="M1028.07,-371.15C1078.99,-360.22 1189.88,-336.41 1261.31,-321.07"/>
<polygon fill="black" stroke="black" points="1261.9,-324.52 1270.94,-319 1260.43,-317.68 1261.9,-324.52"/>
</g>
<!-- 14 -->
<g id="node15" class="node">
<title>14</title>
<ellipse fill="none" stroke="blue" cx="1169.84" cy="-90" rx="60.68" ry="18"/>
<text text-anchor="middle" x="1169.84" y="-85.33" font-family="Times,serif" font-size="14.00">dissimilar</text>
</g>
<!-- 10&#45;&gt;14 -->
<g id="edge19" class="edge">
<title>10&#45;&gt;14</title>
<path fill="none" stroke="blue" d="M1169.84,-143.7C1169.84,-136.41 1169.84,-127.73 1169.84,-119.54"/>
<polygon fill="blue" stroke="blue" points="1173.34,-119.62 1169.84,-109.62 1166.34,-119.62 1173.34,-119.62"/>
</g>
<!-- 15 -->
<g id="node16" class="node">
<title>15</title>
<ellipse fill="none" stroke="black" cx="1304.84" cy="-90" rx="56.47" ry="18"/>
<text text-anchor="middle" x="1304.84" y="-85.33" font-family="Times,serif" font-size="14.00">once_cell</text>
</g>
<!-- 10&#45;&gt;15 -->
<g id="edge20" class="edge">
<title>10&#45;&gt;15</title>
<path fill="none" stroke="blue" d="M1199.8,-145.46C1219.43,-135.29 1245.26,-121.89 1266.4,-110.93"/>
<polygon fill="blue" stroke="blue" points="1267.74,-114.18 1275,-106.47 1264.52,-107.97 1267.74,-114.18"/>
</g>
<!-- 16 -->
<g id="node17" class="node">
<title>16</title>
<ellipse fill="none" stroke="black" cx="179.84" cy="-90" rx="54.36" ry="18"/>
<text text-anchor="middle" x="179.84" y="-85.33" font-family="Times,serif" font-size="14.00">countme</text>
</g>
<!-- 11&#45;&gt;16 -->
<g id="edge21" class="edge">
<title>11&#45;&gt;16</title>
<path fill="none" stroke="black" d="M360.02,-150.22C324.82,-138.65 268.56,-120.16 228.27,-106.92"/>
<polygon fill="black" stroke="black" points="229.39,-103.6 218.8,-103.8 227.2,-110.25 229.39,-103.6"/>
</g>
<!-- 17 -->
<g id="node18" class="node">
<title>17</title>
<ellipse fill="none" stroke="black" cx="318.84" cy="-90" rx="66.47" ry="18"/>
<text text-anchor="middle" x="318.84" y="-85.33" font-family="Times,serif" font-size="14.00">hashbrown</text>
</g>
<!-- 11&#45;&gt;17 -->
<g id="edge22" class="edge">
<title>11&#45;&gt;17</title>
<path fill="none" stroke="black" d="M376.05,-145.12C366.85,-136.42 355.26,-125.45 344.91,-115.66"/>
<polygon fill="black" stroke="black" points="347.37,-113.17 337.7,-108.84 342.55,-118.25 347.37,-113.17"/>
</g>
<!-- 18 -->
<g id="node19" class="node">
<title>18</title>
<ellipse fill="none" stroke="black" cx="466.84" cy="-90" rx="63.83" ry="18"/>
<text text-anchor="middle" x="466.84" y="-85.33" font-family="Times,serif" font-size="14.00">memoffset</text>
</g>
<!-- 11&#45;&gt;18 -->
<g id="edge23" class="edge">
<title>11&#45;&gt;18</title>
<path fill="none" stroke="black" d="M409.63,-145.12C418.89,-136.36 430.59,-125.29 440.99,-115.45"/>
<polygon fill="black" stroke="black" points="443.38,-118.01 448.24,-108.59 438.57,-112.92 443.38,-118.01"/>
</g>
<!-- 19 -->
<g id="node20" class="node">
<title>19</title>
<ellipse fill="none" stroke="black" cx="612.84" cy="-90" rx="63.83" ry="18"/>
<text text-anchor="middle" x="612.84" y="-85.33" font-family="Times,serif" font-size="14.00">rustc&#45;hash</text>
</g>
<!-- 11&#45;&gt;19 -->
<g id="edge24" class="edge">
<title>11&#45;&gt;19</title>
<path fill="none" stroke="black" d="M425.77,-150.52C461.54,-139.14 519.14,-120.81 560.98,-107.5"/>
<polygon fill="black" stroke="black" points="561.89,-110.89 570.35,-104.52 559.76,-104.21 561.89,-110.89"/>
</g>
<!-- 20 -->
<g id="node21" class="node">
<title>20</title>
<ellipse fill="none" stroke="black" cx="53.84" cy="-90" rx="53.84" ry="18"/>
<text text-anchor="middle" x="53.84" y="-85.33" font-family="Times,serif" font-size="14.00">text&#45;size</text>
</g>
<!-- 11&#45;&gt;20 -->
<g id="edge25" class="edge">
<title>11&#45;&gt;20</title>
<path fill="none" stroke="black" d="M354.25,-154.52C300.72,-145.31 200.99,-127.41 116.84,-108 113.02,-107.12 109.09,-106.17 105.14,-105.18"/>
<polygon fill="black" stroke="black" points="106.08,-101.81 95.52,-102.7 104.34,-108.59 106.08,-101.81"/>
</g>
<!-- 21 -->
<g id="node22" class="node">
<title>21</title>
<ellipse fill="none" stroke="darkgreen" stroke-dasharray="5,2" cx="1001.84" cy="-18" rx="75.41" ry="18"/>
<text text-anchor="middle" x="1001.84" y="-13.32" font-family="Times,serif" font-size="14.00">regex&#45;syntax</text>
</g>
<!-- 12&#45;&gt;21 -->
<g id="edge26" class="edge">
<title>12&#45;&gt;21</title>
<path fill="none" stroke="darkgreen" stroke-dasharray="1,5" d="M1001.84,-71.7C1001.84,-64.41 1001.84,-55.73 1001.84,-47.54"/>
<polygon fill="darkgreen" stroke="darkgreen" points="1005.34,-47.62 1001.84,-37.62 998.34,-47.62 1005.34,-47.62"/>
</g>
<!-- 13&#45;&gt;15 -->
<g id="edge29" class="edge">
<title>13&#45;&gt;15</title>
<path fill="none" stroke="black" d="M1317.3,-287.93C1312.2,-277.82 1306.45,-264.57 1303.84,-252 1294.37,-206.38 1297.65,-151.9 1301.1,-119.45"/>
<polygon fill="black" stroke="black" points="1304.56,-119.99 1302.23,-109.66 1297.61,-119.19 1304.56,-119.99"/>
</g>
<!-- 22 -->
<g id="node23" class="node">
<title>22</title>
<ellipse fill="none" stroke="black" cx="1368.84" cy="-234" rx="56.47" ry="18"/>
<text text-anchor="middle" x="1368.84" y="-229.32" font-family="Times,serif" font-size="14.00">arbitrary</text>
</g>
<!-- 13&#45;&gt;22 -->
<g id="edge27" class="edge">
<title>13&#45;&gt;22</title>
<path fill="none" stroke="black" d="M1337.22,-287.7C1341.9,-279.9 1347.53,-270.51 1352.74,-261.83"/>
<polygon fill="black" stroke="black" points="1355.65,-263.78 1357.8,-253.4 1349.65,-260.18 1355.65,-263.78"/>
</g>
<!-- 23 -->
<g id="node24" class="node">
<title>23</title>
<ellipse fill="none" stroke="#00cd00" cx="1469.84" cy="-234" rx="27" ry="18"/>
<text text-anchor="middle" x="1469.84" y="-229.32" font-family="Times,serif" font-size="14.00">cc</text>
</g>
<!-- 13&#45;&gt;23 -->
<g id="edge28" class="edge">
<title>13&#45;&gt;23</title>
<path fill="none" stroke="#00cd00" d="M1358.93,-289.29C1382.64,-277.69 1414.75,-261.97 1438.32,-250.43"/>
<polygon fill="#00cd00" stroke="#00cd00" points="1439.69,-253.66 1447.13,-246.12 1436.61,-247.37 1439.69,-253.66"/>
</g>
<!-- 24 -->
<g id="node25" class="node">
<title>24</title>
<ellipse fill="none" stroke="#00cd00" cx="466.84" cy="-18" rx="48.58" ry="18"/>
<text text-anchor="middle" x="466.84" y="-13.32" font-family="Times,serif" font-size="14.00">autocfg</text>
</g>
<!-- 18&#45;&gt;24 -->
<g id="edge30" class="edge">
<title>18&#45;&gt;24</title>
<path fill="none" stroke="#00cd00" d="M466.84,-71.7C466.84,-64.41 466.84,-55.73 466.84,-47.54"/>
<polygon fill="#00cd00" stroke="#00cd00" points="470.34,-47.62 466.84,-37.62 463.34,-47.62 470.34,-47.62"/>
</g>
<!-- 25 -->
<g id="node26" class="node">
<title>25</title>
<ellipse fill="none" stroke="#00cd00" stroke-dasharray="5,2" cx="1513.84" cy="-162" rx="58.57" ry="18"/>
<text text-anchor="middle" x="1513.84" y="-157.32" font-family="Times,serif" font-size="14.00">jobserver</text>
</g>
<!-- 23&#45;&gt;25 -->
<g id="edge31" class="edge">
<title>23&#45;&gt;25</title>
<path fill="none" stroke="#00cd00" stroke-dasharray="1,5" d="M1479.82,-217.12C1484.96,-208.94 1491.36,-198.76 1497.22,-189.44"/>
<polygon fill="#00cd00" stroke="#00cd00" points="1500.12,-191.41 1502.47,-181.08 1494.19,-187.68 1500.12,-191.41"/>
</g>
<!-- 26 -->
<g id="node27" class="node">
<title>26</title>
<ellipse fill="lightgrey" stroke="#00cd00" cx="1470.84" cy="-90" rx="29.11" ry="18"/>
<text text-anchor="middle" x="1470.84" y="-85.33" font-family="Times,serif" font-size="14.00">libc</text>
</g>
<!-- 23&#45;&gt;26 -->
<g id="edge32" class="edge">
<title>23&#45;&gt;26</title>
<path fill="none" stroke="#00cd00" d="M1460.38,-216.92C1454.94,-206.72 1448.65,-193.03 1445.84,-180 1442.46,-164.36 1442.34,-159.61 1445.84,-144 1447.88,-134.89 1451.67,-125.5 1455.69,-117.2"/>
<polygon fill="lightgrey" stroke="#00cd00" points="1458.77,-118.86 1460.29,-108.38 1452.57,-115.63 1458.77,-118.86"/>
</g>
<!-- 25&#45;&gt;26 -->
<g id="edge33" class="edge">
<title>25&#45;&gt;26</title>
<path fill="none" stroke="#00cd00" stroke-dasharray="5,2" d="M1503.43,-144.05C1498.45,-135.94 1492.37,-126.04 1486.81,-117.01"/>
<polygon fill="lightgrey" stroke="#00cd00" points="1489.86,-115.29 1481.65,-108.6 1483.9,-118.95 1489.86,-115.29"/>
</g>
</g>
</svg>
