<?xml version="1.0" encoding="UTF-8" standalone="no"?>
<!DOCTYPE svg PUBLIC "-//W3C//DTD SVG 1.1//EN"
 "http://www.w3.org/Graphics/SVG/1.1/DTD/svg11.dtd">
<!-- Generated by graphviz version 12.1.2 (0)
 -->
<!-- Pages: 1 -->
<svg width="1484pt" height="404pt"
 viewBox="0.00 0.00 1484.14 404.00" xmlns="http://www.w3.org/2000/svg" xmlns:xlink="http://www.w3.org/1999/xlink">
<g id="graph0" class="graph" transform="scale(1 1) rotate(0) translate(4 400)">
<polygon fill="white" stroke="none" points="-4,4 -4,-400 1480.14,-400 1480.14,4 -4,4"/>
<!-- 0 -->
<g id="node1" class="node">
<title>0</title>
<polygon fill="none" stroke="black" points="469.86,-252 413.36,-252 413.36,-216 469.86,-216 469.86,-252"/>
<text text-anchor="middle" x="441.61" y="-229.32" font-family="Times,serif" font-size="14.00">arena</text>
</g>
<!-- 1 -->
<g id="node2" class="node">
<title>1</title>
<polygon fill="none" stroke="black" points="626.61,-396 556.61,-396 556.61,-360 626.61,-360 626.61,-396"/>
<text text-anchor="middle" x="591.61" y="-373.32" font-family="Times,serif" font-size="14.00">liom_cli</text>
</g>
<!-- 2 -->
<g id="node3" class="node">
<title>2</title>
<polygon fill="none" stroke="black" points="616.49,-324 542.74,-324 542.74,-288 616.49,-288 616.49,-324"/>
<text text-anchor="middle" x="579.61" y="-301.32" font-family="Times,serif" font-size="14.00">liom_hir</text>
</g>
<!-- 1&#45;&gt;2 -->
<g id="edge1" class="edge">
<title>1&#45;&gt;2</title>
<path fill="none" stroke="black" d="M588.65,-359.7C587.38,-352.32 585.88,-343.52 584.46,-335.25"/>
<polygon fill="black" stroke="black" points="587.94,-334.86 582.8,-325.6 581.04,-336.04 587.94,-334.86"/>
</g>
<!-- 3 -->
<g id="node4" class="node">
<title>3</title>
<polygon fill="none" stroke="black" points="713.99,-252 613.24,-252 613.24,-216 713.99,-216 713.99,-252"/>
<text text-anchor="middle" x="663.61" y="-229.32" font-family="Times,serif" font-size="14.00">liom_syntax</text>
</g>
<!-- 1&#45;&gt;3 -->
<g id="edge2" class="edge">
<title>1&#45;&gt;3</title>
<path fill="none" stroke="black" d="M603.7,-359.77C610.57,-349.62 619.07,-336.37 625.61,-324 636.11,-304.17 646,-280.82 653.05,-263.01"/>
<polygon fill="black" stroke="black" points="656.24,-264.46 656.61,-253.87 649.72,-261.92 656.24,-264.46"/>
</g>
<!-- 2&#45;&gt;0 -->
<g id="edge3" class="edge">
<title>2&#45;&gt;0</title>
<path fill="none" stroke="black" d="M545.15,-287.52C525.43,-277.52 500.65,-264.95 480.27,-254.61"/>
<polygon fill="black" stroke="black" points="481.92,-251.52 471.42,-250.12 478.76,-257.76 481.92,-251.52"/>
</g>
<!-- 2&#45;&gt;3 -->
<g id="edge4" class="edge">
<title>2&#45;&gt;3</title>
<path fill="none" stroke="black" d="M600.38,-287.7C610.58,-279.2 623.04,-268.81 634.2,-259.51"/>
<polygon fill="black" stroke="black" points="636.19,-262.41 641.64,-253.32 631.71,-257.03 636.19,-262.41"/>
</g>
<!-- 9 -->
<g id="node10" class="node">
<title>9</title>
<ellipse fill="none" stroke="black" cx="541.61" cy="-234" rx="53.84" ry="18"/>
<text text-anchor="middle" x="541.61" y="-229.32" font-family="Times,serif" font-size="14.00">smol_str</text>
</g>
<!-- 2&#45;&gt;9 -->
<g id="edge5" class="edge">
<title>2&#45;&gt;9</title>
<path fill="none" stroke="black" d="M570.22,-287.7C566.03,-279.98 561,-270.71 556.33,-262.11"/>
<polygon fill="black" stroke="black" points="559.47,-260.55 551.62,-253.43 553.32,-263.89 559.47,-260.55"/>
</g>
<!-- 4 -->
<g id="node5" class="node">
<title>4</title>
<polygon fill="none" stroke="black" points="286.36,-180 196.86,-180 196.86,-144 286.36,-144 286.36,-180"/>
<text text-anchor="middle" x="241.61" y="-157.32" font-family="Times,serif" font-size="14.00">liom_lexer</text>
</g>
<!-- 3&#45;&gt;4 -->
<g id="edge7" class="edge">
<title>3&#45;&gt;4</title>
<path fill="none" stroke="black" d="M612.9,-217.81C610.11,-217.16 607.33,-216.55 604.61,-216 472.63,-189.49 432.91,-207.86 298,-180.26"/>
<polygon fill="black" stroke="black" points="298.81,-176.85 288.3,-178.22 297.37,-183.7 298.81,-176.85"/>
</g>
<!-- 6 -->
<g id="node7" class="node">
<title>6</title>
<polygon fill="none" stroke="black" points="404.61,-180 304.61,-180 304.61,-144 404.61,-144 404.61,-180"/>
<text text-anchor="middle" x="354.61" y="-157.32" font-family="Times,serif" font-size="14.00">liom_parser</text>
</g>
<!-- 3&#45;&gt;6 -->
<g id="edge8" class="edge">
<title>3&#45;&gt;6</title>
<path fill="none" stroke="black" d="M612.83,-218.12C610.05,-217.38 607.3,-216.67 604.61,-216 540.58,-200.01 466.56,-184.71 415.77,-174.69"/>
<polygon fill="black" stroke="black" points="416.63,-171.3 406.15,-172.8 415.28,-178.16 416.63,-171.3"/>
</g>
<!-- 10 -->
<g id="node11" class="node">
<title>10</title>
<ellipse fill="none" stroke="blue" cx="1024.61" cy="-162" rx="66.99" ry="18"/>
<text text-anchor="middle" x="1024.61" y="-157.32" font-family="Times,serif" font-size="14.00">expect&#45;test</text>
</g>
<!-- 3&#45;&gt;10 -->
<g id="edge6" class="edge">
<title>3&#45;&gt;10</title>
<path fill="none" stroke="blue" d="M714.19,-223.19C778.66,-210.69 890.16,-189.07 960.52,-175.43"/>
<polygon fill="blue" stroke="blue" points="960.81,-178.94 969.96,-173.6 959.48,-172.07 960.81,-178.94"/>
</g>
<!-- 11 -->
<g id="node12" class="node">
<title>11</title>
<ellipse fill="none" stroke="black" cx="663.61" cy="-162" rx="42.26" ry="18"/>
<text text-anchor="middle" x="663.61" y="-157.32" font-family="Times,serif" font-size="14.00">rowan</text>
</g>
<!-- 3&#45;&gt;11 -->
<g id="edge9" class="edge">
<title>3&#45;&gt;11</title>
<path fill="none" stroke="black" d="M663.61,-215.7C663.61,-208.41 663.61,-199.73 663.61,-191.54"/>
<polygon fill="black" stroke="black" points="667.11,-191.62 663.61,-181.62 660.11,-191.62 667.11,-191.62"/>
</g>
<!-- 5 -->
<g id="node6" class="node">
<title>5</title>
<polygon fill="none" stroke="black" points="290.24,-108 196.99,-108 196.99,-72 290.24,-72 290.24,-108"/>
<text text-anchor="middle" x="243.61" y="-85.33" font-family="Times,serif" font-size="14.00">liom_token</text>
</g>
<!-- 4&#45;&gt;5 -->
<g id="edge10" class="edge">
<title>4&#45;&gt;5</title>
<path fill="none" stroke="black" d="M236.19,-143.7C235.65,-136.41 235.65,-127.73 236.15,-119.54"/>
<polygon fill="black" stroke="black" points="239.63,-119.9 237.09,-109.61 232.66,-119.24 239.63,-119.9"/>
</g>
<!-- 4&#45;&gt;5 -->
<g id="edge11" class="edge">
<title>4&#45;&gt;5</title>
<path fill="none" stroke="#00cd00" d="M248.02,-143.7C248.98,-136.41 249.48,-127.73 249.45,-119.54"/>
<polygon fill="#00cd00" stroke="#00cd00" points="252.95,-119.48 249.08,-109.62 245.95,-119.74 252.95,-119.48"/>
</g>
<!-- 12 -->
<g id="node13" class="node">
<title>12</title>
<ellipse fill="none" stroke="darkgreen" cx="89.61" cy="-90" rx="89.61" ry="18"/>
<text text-anchor="middle" x="89.61" y="-85.33" font-family="Times,serif" font-size="14.00">regex&#45;automata</text>
</g>
<!-- 4&#45;&gt;12 -->
<g id="edge12" class="edge">
<title>4&#45;&gt;12</title>
<path fill="none" stroke="black" d="M197.72,-143.52C176.14,-134.02 150.39,-122.22 129.39,-112.2"/>
<polygon fill="black" stroke="black" points="131.09,-109.14 120.57,-107.96 128.06,-115.45 131.09,-109.14"/>
</g>
<!-- 4&#45;&gt;12 -->
<g id="edge13" class="edge">
<title>4&#45;&gt;12</title>
<path fill="none" stroke="#00cd00" d="M209.58,-143.52C189.23,-133.68 162.57,-121.37 139.51,-111.13"/>
<polygon fill="#00cd00" stroke="#00cd00" points="141.15,-108.03 130.58,-107.2 138.32,-114.44 141.15,-108.03"/>
</g>
<!-- 6&#45;&gt;5 -->
<g id="edge15" class="edge">
<title>6&#45;&gt;5</title>
<path fill="none" stroke="black" d="M326.89,-143.52C312.88,-134.68 295.68,-123.84 280.57,-114.3"/>
<polygon fill="black" stroke="black" points="282.59,-111.44 272.26,-109.07 278.86,-117.36 282.59,-111.44"/>
</g>
<!-- 7 -->
<g id="node8" class="node">
<title>7</title>
<polygon fill="none" stroke="black" points="396.61,-108 308.61,-108 308.61,-72 396.61,-72 396.61,-108"/>
<text text-anchor="middle" x="352.61" y="-85.33" font-family="Times,serif" font-size="14.00">liom_node</text>
</g>
<!-- 6&#45;&gt;7 -->
<g id="edge14" class="edge">
<title>6&#45;&gt;7</title>
<path fill="none" stroke="black" d="M354.12,-143.7C353.91,-136.41 353.66,-127.73 353.43,-119.54"/>
<polygon fill="black" stroke="black" points="356.93,-119.51 353.15,-109.62 349.93,-119.71 356.93,-119.51"/>
</g>
<!-- 8 -->
<g id="node9" class="node">
<title>8</title>
<polygon fill="none" stroke="black" points="709.61,-396 655.61,-396 655.61,-360 709.61,-360 709.61,-396"/>
<text text-anchor="middle" x="682.61" y="-373.32" font-family="Times,serif" font-size="14.00">fuzz</text>
</g>
<!-- 8&#45;&gt;2 -->
<g id="edge17" class="edge">
<title>8&#45;&gt;2</title>
<path fill="none" stroke="black" d="M656.89,-359.52C644.01,-350.76 628.24,-340.04 614.3,-330.58"/>
<polygon fill="black" stroke="black" points="616.5,-327.84 606.26,-325.11 612.57,-333.63 616.5,-327.84"/>
</g>
<!-- 8&#45;&gt;3 -->
<g id="edge18" class="edge">
<title>8&#45;&gt;3</title>
<path fill="none" stroke="black" d="M680.28,-359.59C677.08,-335.61 671.26,-292.14 667.42,-263.42"/>
<polygon fill="black" stroke="black" points="670.9,-263.06 666.1,-253.61 663.96,-263.99 670.9,-263.06"/>
</g>
<!-- 13 -->
<g id="node14" class="node">
<title>13</title>
<ellipse fill="none" stroke="black" cx="1181.61" cy="-306" rx="74.36" ry="18"/>
<text text-anchor="middle" x="1181.61" y="-301.32" font-family="Times,serif" font-size="14.00">libfuzzer&#45;sys</text>
</g>
<!-- 8&#45;&gt;13 -->
<g id="edge16" class="edge">
<title>8&#45;&gt;13</title>
<path fill="none" stroke="black" d="M709.8,-373.19C784.42,-362.72 994.38,-333.27 1107.39,-317.41"/>
<polygon fill="black" stroke="black" points="1107.76,-320.89 1117.18,-316.04 1106.79,-313.96 1107.76,-320.89"/>
</g>
<!-- 14 -->
<g id="node15" class="node">
<title>14</title>
<ellipse fill="none" stroke="blue" cx="1024.61" cy="-90" rx="60.68" ry="18"/>
<text text-anchor="middle" x="1024.61" y="-85.33" font-family="Times,serif" font-size="14.00">dissimilar</text>
</g>
<!-- 10&#45;&gt;14 -->
<g id="edge19" class="edge">
<title>10&#45;&gt;14</title>
<path fill="none" stroke="blue" d="M1024.61,-143.7C1024.61,-136.41 1024.61,-127.73 1024.61,-119.54"/>
<polygon fill="blue" stroke="blue" points="1028.11,-119.62 1024.61,-109.62 1021.11,-119.62 1028.11,-119.62"/>
</g>
<!-- 15 -->
<g id="node16" class="node">
<title>15</title>
<ellipse fill="none" stroke="black" cx="1159.61" cy="-90" rx="56.47" ry="18"/>
<text text-anchor="middle" x="1159.61" y="-85.33" font-family="Times,serif" font-size="14.00">once_cell</text>
</g>
<!-- 10&#45;&gt;15 -->
<g id="edge20" class="edge">
<title>10&#45;&gt;15</title>
<path fill="none" stroke="blue" d="M1054.57,-145.46C1074.2,-135.29 1100.04,-121.89 1121.17,-110.93"/>
<polygon fill="blue" stroke="blue" points="1122.51,-114.18 1129.78,-106.47 1119.29,-107.97 1122.51,-114.18"/>
</g>
<!-- 16 -->
<g id="node17" class="node">
<title>16</title>
<ellipse fill="none" stroke="black" cx="594.61" cy="-90" rx="54.36" ry="18"/>
<text text-anchor="middle" x="594.61" y="-85.33" font-family="Times,serif" font-size="14.00">countme</text>
</g>
<!-- 11&#45;&gt;16 -->
<g id="edge21" class="edge">
<title>11&#45;&gt;16</title>
<path fill="none" stroke="black" d="M647.96,-145.12C639.26,-136.29 628.26,-125.13 618.51,-115.24"/>
<polygon fill="black" stroke="black" points="621.26,-113.05 611.75,-108.38 616.28,-117.96 621.26,-113.05"/>
</g>
<!-- 17 -->
<g id="node18" class="node">
<title>17</title>
<ellipse fill="none" stroke="black" cx="733.61" cy="-90" rx="66.47" ry="18"/>
<text text-anchor="middle" x="733.61" y="-85.33" font-family="Times,serif" font-size="14.00">hashbrown</text>
</g>
<!-- 11&#45;&gt;17 -->
<g id="edge22" class="edge">
<title>11&#45;&gt;17</title>
<path fill="none" stroke="black" d="M679.5,-145.12C688.2,-136.42 699.17,-125.45 708.95,-115.66"/>
<polygon fill="black" stroke="black" points="711.15,-118.41 715.75,-108.87 706.2,-113.46 711.15,-118.41"/>
</g>
<!-- 18 -->
<g id="node19" class="node">
<title>18</title>
<ellipse fill="none" stroke="black" cx="881.61" cy="-90" rx="63.83" ry="18"/>
<text text-anchor="middle" x="881.61" y="-85.33" font-family="Times,serif" font-size="14.00">rustc&#45;hash</text>
</g>
<!-- 11&#45;&gt;18 -->
<g id="edge23" class="edge">
<title>11&#45;&gt;18</title>
<path fill="none" stroke="black" d="M696.72,-150.37C732.07,-139.02 788.57,-120.88 829.81,-107.63"/>
<polygon fill="black" stroke="black" points="830.85,-110.98 839.3,-104.59 828.71,-104.31 830.85,-110.98"/>
</g>
<!-- 19 -->
<g id="node20" class="node">
<title>19</title>
<ellipse fill="none" stroke="black" cx="468.61" cy="-90" rx="53.84" ry="18"/>
<text text-anchor="middle" x="468.61" y="-85.33" font-family="Times,serif" font-size="14.00">text&#45;size</text>
</g>
<!-- 11&#45;&gt;19 -->
<g id="edge24" class="edge">
<title>11&#45;&gt;19</title>
<path fill="none" stroke="black" d="M632.28,-149.75C600.67,-138.41 551.49,-120.75 515.29,-107.75"/>
<polygon fill="black" stroke="black" points="516.52,-104.48 505.93,-104.39 514.15,-111.07 516.52,-104.48"/>
</g>
<!-- 20 -->
<g id="node21" class="node">
<title>20</title>
<ellipse fill="none" stroke="darkgreen" stroke-dasharray="5,2" cx="89.61" cy="-18" rx="75.41" ry="18"/>
<text text-anchor="middle" x="89.61" y="-13.32" font-family="Times,serif" font-size="14.00">regex&#45;syntax</text>
</g>
<!-- 12&#45;&gt;20 -->
<g id="edge25" class="edge">
<title>12&#45;&gt;20</title>
<path fill="none" stroke="darkgreen" stroke-dasharray="1,5" d="M89.61,-71.7C89.61,-64.41 89.61,-55.73 89.61,-47.54"/>
<polygon fill="darkgreen" stroke="darkgreen" points="93.11,-47.62 89.61,-37.62 86.11,-47.62 93.11,-47.62"/>
</g>
<!-- 13&#45;&gt;15 -->
<g id="edge28" class="edge">
<title>13&#45;&gt;15</title>
<path fill="none" stroke="black" d="M1172.07,-287.93C1166.97,-277.82 1161.22,-264.57 1158.61,-252 1149.14,-206.38 1152.43,-151.9 1155.88,-119.45"/>
<polygon fill="black" stroke="black" points="1159.34,-119.99 1157.01,-109.66 1152.38,-119.19 1159.34,-119.99"/>
</g>
<!-- 21 -->
<g id="node22" class="node">
<title>21</title>
<ellipse fill="none" stroke="black" cx="1223.61" cy="-234" rx="56.47" ry="18"/>
<text text-anchor="middle" x="1223.61" y="-229.32" font-family="Times,serif" font-size="14.00">arbitrary</text>
</g>
<!-- 13&#45;&gt;21 -->
<g id="edge26" class="edge">
<title>13&#45;&gt;21</title>
<path fill="none" stroke="black" d="M1192,-287.7C1196.68,-279.9 1202.31,-270.51 1207.52,-261.83"/>
<polygon fill="black" stroke="black" points="1210.43,-263.78 1212.57,-253.4 1204.43,-260.18 1210.43,-263.78"/>
</g>
<!-- 22 -->
<g id="node23" class="node">
<title>22</title>
<ellipse fill="none" stroke="#00cd00" cx="1324.61" cy="-234" rx="27" ry="18"/>
<text text-anchor="middle" x="1324.61" y="-229.32" font-family="Times,serif" font-size="14.00">cc</text>
</g>
<!-- 13&#45;&gt;22 -->
<g id="edge27" class="edge">
<title>13&#45;&gt;22</title>
<path fill="none" stroke="#00cd00" d="M1213.71,-289.29C1237.41,-277.69 1269.53,-261.97 1293.1,-250.43"/>
<polygon fill="#00cd00" stroke="#00cd00" points="1294.46,-253.66 1301.91,-246.12 1291.39,-247.37 1294.46,-253.66"/>
</g>
<!-- 23 -->
<g id="node24" class="node">
<title>23</title>
<ellipse fill="none" stroke="#00cd00" stroke-dasharray="5,2" cx="1324.61" cy="-162" rx="58.57" ry="18"/>
<text text-anchor="middle" x="1324.61" y="-157.32" font-family="Times,serif" font-size="14.00">jobserver</text>
</g>
<!-- 22&#45;&gt;23 -->
<g id="edge29" class="edge">
<title>22&#45;&gt;23</title>
<path fill="none" stroke="#00cd00" stroke-dasharray="1,5" d="M1324.61,-215.7C1324.61,-208.41 1324.61,-199.73 1324.61,-191.54"/>
<polygon fill="#00cd00" stroke="#00cd00" points="1328.11,-191.62 1324.61,-181.62 1321.11,-191.62 1328.11,-191.62"/>
</g>
<!-- 24 -->
<g id="node25" class="node">
<title>24</title>
<ellipse fill="lightgrey" stroke="#00cd00" stroke-dasharray="5,2" cx="1294.61" cy="-90" rx="29.11" ry="18"/>
<text text-anchor="middle" x="1294.61" y="-85.33" font-family="Times,serif" font-size="14.00">libc</text>
</g>
<!-- 22&#45;&gt;24 -->
<g id="edge30" class="edge">
<title>22&#45;&gt;24</title>
<path fill="none" stroke="#00cd00" stroke-dasharray="1,5" d="M1303.05,-222.93C1286.97,-214.11 1266.21,-199.64 1256.61,-180 1246,-158.27 1259.33,-132.85 1273.04,-114.75"/>
<polygon fill="lightgrey" stroke="#00cd00" points="1275.59,-117.16 1279.16,-107.19 1270.15,-112.76 1275.59,-117.16"/>
</g>
<!-- 25 -->
<g id="node26" class="node">
<title>25</title>
<ellipse fill="none" stroke="#00cd00" cx="1438.61" cy="-162" rx="37.53" ry="18"/>
<text text-anchor="middle" x="1438.61" y="-157.32" font-family="Times,serif" font-size="14.00">shlex</text>
</g>
<!-- 22&#45;&gt;25 -->
<g id="edge31" class="edge">
<title>22&#45;&gt;25</title>
<path fill="none" stroke="#00cd00" d="M1343.95,-221.13C1361.02,-210.65 1386.23,-195.17 1406.35,-182.81"/>
<polygon fill="#00cd00" stroke="#00cd00" points="1408.06,-185.87 1414.75,-177.65 1404.4,-179.9 1408.06,-185.87"/>
</g>
<!-- 23&#45;&gt;24 -->
<g id="edge32" class="edge">
<title>23&#45;&gt;24</title>
<path fill="none" stroke="#00cd00" stroke-dasharray="5,2" d="M1317.2,-143.7C1313.88,-135.95 1309.89,-126.64 1306.19,-118.02"/>
<polygon fill="lightgrey" stroke="#00cd00" points="1309.49,-116.83 1302.33,-109.01 1303.06,-119.58 1309.49,-116.83"/>
</g>
</g>
</svg>
