<?xml version="1.0" encoding="UTF-8" standalone="no"?>
<!DOCTYPE svg PUBLIC "-//W3C//DTD SVG 1.1//EN"
 "http://www.w3.org/Graphics/SVG/1.1/DTD/svg11.dtd">
<!-- Generated by graphviz version 10.0.1 (0)
 -->
<!-- Pages: 1 -->
<svg width="1508pt" height="404pt"
 viewBox="0.00 0.00 1507.73 404.00" xmlns="http://www.w3.org/2000/svg" xmlns:xlink="http://www.w3.org/1999/xlink">
<g id="graph0" class="graph" transform="scale(1 1) rotate(0) translate(4 400)">
<polygon fill="white" stroke="none" points="-4,4 -4,-400 1503.73,-400 1503.73,4 -4,4"/>
<!-- 0 -->
<g id="node1" class="node">
<title>0</title>
<polygon fill="none" stroke="black" points="561.86,-252 505.36,-252 505.36,-216 561.86,-216 561.86,-252"/>
<text text-anchor="middle" x="533.61" y="-229.32" font-family="Times,serif" font-size="14.00">arena</text>
</g>
<!-- 1 -->
<g id="node2" class="node">
<title>1</title>
<polygon fill="none" stroke="black" points="718.61,-396 648.61,-396 648.61,-360 718.61,-360 718.61,-396"/>
<text text-anchor="middle" x="683.61" y="-373.32" font-family="Times,serif" font-size="14.00">liom_cli</text>
</g>
<!-- 2 -->
<g id="node3" class="node">
<title>2</title>
<polygon fill="none" stroke="black" points="708.49,-324 634.74,-324 634.74,-288 708.49,-288 708.49,-324"/>
<text text-anchor="middle" x="671.61" y="-301.32" font-family="Times,serif" font-size="14.00">liom_hir</text>
</g>
<!-- 1&#45;&gt;2 -->
<g id="edge1" class="edge">
<title>1&#45;&gt;2</title>
<path fill="none" stroke="black" d="M680.65,-359.7C679.38,-352.32 677.88,-343.52 676.46,-335.25"/>
<polygon fill="black" stroke="black" points="679.94,-334.86 674.8,-325.6 673.04,-336.04 679.94,-334.86"/>
</g>
<!-- 3 -->
<g id="node4" class="node">
<title>3</title>
<polygon fill="none" stroke="black" points="805.99,-252 705.24,-252 705.24,-216 805.99,-216 805.99,-252"/>
<text text-anchor="middle" x="755.61" y="-229.32" font-family="Times,serif" font-size="14.00">liom_syntax</text>
</g>
<!-- 1&#45;&gt;3 -->
<g id="edge2" class="edge">
<title>1&#45;&gt;3</title>
<path fill="none" stroke="black" d="M695.7,-359.77C702.57,-349.62 711.07,-336.37 717.61,-324 728.11,-304.17 738,-280.82 745.05,-263.01"/>
<polygon fill="black" stroke="black" points="748.24,-264.46 748.61,-253.87 741.72,-261.92 748.24,-264.46"/>
</g>
<!-- 2&#45;&gt;0 -->
<g id="edge3" class="edge">
<title>2&#45;&gt;0</title>
<path fill="none" stroke="black" d="M637.15,-287.52C617.43,-277.52 592.65,-264.95 572.27,-254.61"/>
<polygon fill="black" stroke="black" points="573.92,-251.52 563.42,-250.12 570.76,-257.76 573.92,-251.52"/>
</g>
<!-- 2&#45;&gt;3 -->
<g id="edge4" class="edge">
<title>2&#45;&gt;3</title>
<path fill="none" stroke="black" d="M692.38,-287.7C702.58,-279.2 715.04,-268.81 726.2,-259.51"/>
<polygon fill="black" stroke="black" points="728.19,-262.41 733.64,-253.32 723.71,-257.03 728.19,-262.41"/>
</g>
<!-- 9 -->
<g id="node10" class="node">
<title>9</title>
<ellipse fill="none" stroke="black" cx="633.61" cy="-234" rx="53.84" ry="18"/>
<text text-anchor="middle" x="633.61" y="-229.32" font-family="Times,serif" font-size="14.00">smol_str</text>
</g>
<!-- 2&#45;&gt;9 -->
<g id="edge5" class="edge">
<title>2&#45;&gt;9</title>
<path fill="none" stroke="black" d="M662.22,-287.7C658.03,-279.98 653,-270.71 648.33,-262.11"/>
<polygon fill="black" stroke="black" points="651.47,-260.55 643.62,-253.43 645.32,-263.89 651.47,-260.55"/>
</g>
<!-- 4 -->
<g id="node5" class="node">
<title>4</title>
<polygon fill="none" stroke="black" points="286.36,-180 196.86,-180 196.86,-144 286.36,-144 286.36,-180"/>
<text text-anchor="middle" x="241.61" y="-157.32" font-family="Times,serif" font-size="14.00">liom_lexer</text>
</g>
<!-- 3&#45;&gt;4 -->
<g id="edge7" class="edge">
<title>3&#45;&gt;4</title>
<path fill="none" stroke="black" d="M704.91,-217.73C702.12,-217.09 699.34,-216.51 696.61,-216 524.34,-183.75 473.17,-213.78 297.97,-180.2"/>
<polygon fill="black" stroke="black" points="298.78,-176.79 288.29,-178.29 297.43,-183.66 298.78,-176.79"/>
</g>
<!-- 6 -->
<g id="node7" class="node">
<title>6</title>
<polygon fill="none" stroke="black" points="404.61,-180 304.61,-180 304.61,-144 404.61,-144 404.61,-180"/>
<text text-anchor="middle" x="354.61" y="-157.32" font-family="Times,serif" font-size="14.00">liom_parser</text>
</g>
<!-- 3&#45;&gt;6 -->
<g id="edge8" class="edge">
<title>3&#45;&gt;6</title>
<path fill="none" stroke="black" d="M704.87,-217.94C702.09,-217.25 699.32,-216.6 696.61,-216 599.49,-194.57 484.97,-178.7 416.17,-170.15"/>
<polygon fill="black" stroke="black" points="416.97,-166.72 406.61,-168.98 416.11,-173.67 416.97,-166.72"/>
</g>
<!-- 10 -->
<g id="node11" class="node">
<title>10</title>
<ellipse fill="none" stroke="blue" cx="1170.61" cy="-162" rx="66.99" ry="18"/>
<text text-anchor="middle" x="1170.61" y="-157.32" font-family="Times,serif" font-size="14.00">expect&#45;test</text>
</g>
<!-- 3&#45;&gt;10 -->
<g id="edge6" class="edge">
<title>3&#45;&gt;10</title>
<path fill="none" stroke="blue" d="M806.09,-224.49C880.67,-211.91 1020.42,-188.33 1103.54,-174.31"/>
<polygon fill="blue" stroke="blue" points="1104.11,-177.77 1113.39,-172.65 1102.95,-170.86 1104.11,-177.77"/>
</g>
<!-- 11 -->
<g id="node12" class="node">
<title>11</title>
<ellipse fill="none" stroke="black" cx="755.61" cy="-162" rx="42.26" ry="18"/>
<text text-anchor="middle" x="755.61" y="-157.32" font-family="Times,serif" font-size="14.00">rowan</text>
</g>
<!-- 3&#45;&gt;11 -->
<g id="edge9" class="edge">
<title>3&#45;&gt;11</title>
<path fill="none" stroke="black" d="M755.61,-215.7C755.61,-208.41 755.61,-199.73 755.61,-191.54"/>
<polygon fill="black" stroke="black" points="759.11,-191.62 755.61,-181.62 752.11,-191.62 759.11,-191.62"/>
</g>
<!-- 5 -->
<g id="node6" class="node">
<title>5</title>
<polygon fill="none" stroke="black" points="290.24,-108 196.99,-108 196.99,-72 290.24,-72 290.24,-108"/>
<text text-anchor="middle" x="243.61" y="-85.33" font-family="Times,serif" font-size="14.00">liom_token</text>
</g>
<!-- 4&#45;&gt;5 -->
<g id="edge10" class="edge">
<title>4&#45;&gt;5</title>
<path fill="none" stroke="black" d="M236.19,-143.7C235.65,-136.41 235.65,-127.73 236.15,-119.54"/>
<polygon fill="black" stroke="black" points="239.63,-119.9 237.09,-109.61 232.66,-119.24 239.63,-119.9"/>
</g>
<!-- 4&#45;&gt;5 -->
<g id="edge11" class="edge">
<title>4&#45;&gt;5</title>
<path fill="none" stroke="#00cd00" d="M248.02,-143.7C248.98,-136.41 249.48,-127.73 249.45,-119.54"/>
<polygon fill="#00cd00" stroke="#00cd00" points="252.95,-119.48 249.08,-109.62 245.95,-119.74 252.95,-119.48"/>
</g>
<!-- 12 -->
<g id="node13" class="node">
<title>12</title>
<ellipse fill="none" stroke="darkgreen" cx="89.61" cy="-90" rx="89.61" ry="18"/>
<text text-anchor="middle" x="89.61" y="-85.33" font-family="Times,serif" font-size="14.00">regex&#45;automata</text>
</g>
<!-- 4&#45;&gt;12 -->
<g id="edge12" class="edge">
<title>4&#45;&gt;12</title>
<path fill="none" stroke="black" d="M197.72,-143.52C176.14,-134.02 150.39,-122.22 129.39,-112.2"/>
<polygon fill="black" stroke="black" points="131.09,-109.14 120.57,-107.96 128.06,-115.45 131.09,-109.14"/>
</g>
<!-- 4&#45;&gt;12 -->
<g id="edge13" class="edge">
<title>4&#45;&gt;12</title>
<path fill="none" stroke="#00cd00" d="M209.58,-143.52C189.23,-133.68 162.57,-121.37 139.51,-111.13"/>
<polygon fill="#00cd00" stroke="#00cd00" points="141.15,-108.03 130.58,-107.2 138.32,-114.44 141.15,-108.03"/>
</g>
<!-- 6&#45;&gt;5 -->
<g id="edge15" class="edge">
<title>6&#45;&gt;5</title>
<path fill="none" stroke="black" d="M326.89,-143.52C312.88,-134.68 295.68,-123.84 280.57,-114.3"/>
<polygon fill="black" stroke="black" points="282.59,-111.44 272.26,-109.07 278.86,-117.36 282.59,-111.44"/>
</g>
<!-- 7 -->
<g id="node8" class="node">
<title>7</title>
<polygon fill="none" stroke="black" points="396.61,-108 308.61,-108 308.61,-72 396.61,-72 396.61,-108"/>
<text text-anchor="middle" x="352.61" y="-85.33" font-family="Times,serif" font-size="14.00">liom_node</text>
</g>
<!-- 6&#45;&gt;7 -->
<g id="edge14" class="edge">
<title>6&#45;&gt;7</title>
<path fill="none" stroke="black" d="M354.12,-143.7C353.91,-136.41 353.66,-127.73 353.43,-119.54"/>
<polygon fill="black" stroke="black" points="356.93,-119.51 353.15,-109.62 349.93,-119.71 356.93,-119.51"/>
</g>
<!-- 8 -->
<g id="node9" class="node">
<title>8</title>
<polygon fill="none" stroke="black" points="801.61,-396 747.61,-396 747.61,-360 801.61,-360 801.61,-396"/>
<text text-anchor="middle" x="774.61" y="-373.32" font-family="Times,serif" font-size="14.00">fuzz</text>
</g>
<!-- 8&#45;&gt;2 -->
<g id="edge17" class="edge">
<title>8&#45;&gt;2</title>
<path fill="none" stroke="black" d="M748.89,-359.52C736.01,-350.76 720.24,-340.04 706.3,-330.58"/>
<polygon fill="black" stroke="black" points="708.5,-327.84 698.26,-325.11 704.57,-333.63 708.5,-327.84"/>
</g>
<!-- 8&#45;&gt;3 -->
<g id="edge18" class="edge">
<title>8&#45;&gt;3</title>
<path fill="none" stroke="black" d="M772.28,-359.59C769.08,-335.61 763.26,-292.14 759.42,-263.42"/>
<polygon fill="black" stroke="black" points="762.9,-263.06 758.1,-253.61 755.96,-263.99 762.9,-263.06"/>
</g>
<!-- 13 -->
<g id="node14" class="node">
<title>13</title>
<ellipse fill="none" stroke="black" cx="1327.61" cy="-306" rx="74.36" ry="18"/>
<text text-anchor="middle" x="1327.61" y="-301.32" font-family="Times,serif" font-size="14.00">libfuzzer&#45;sys</text>
</g>
<!-- 8&#45;&gt;13 -->
<g id="edge16" class="edge">
<title>8&#45;&gt;13</title>
<path fill="none" stroke="black" d="M802.04,-373.53C883.61,-363.2 1126.82,-332.42 1251.73,-316.61"/>
<polygon fill="black" stroke="black" points="1252.09,-320.09 1261.57,-315.36 1251.21,-313.14 1252.09,-320.09"/>
</g>
<!-- 14 -->
<g id="node15" class="node">
<title>14</title>
<ellipse fill="none" stroke="blue" cx="1170.61" cy="-90" rx="60.68" ry="18"/>
<text text-anchor="middle" x="1170.61" y="-85.33" font-family="Times,serif" font-size="14.00">dissimilar</text>
</g>
<!-- 10&#45;&gt;14 -->
<g id="edge19" class="edge">
<title>10&#45;&gt;14</title>
<path fill="none" stroke="blue" d="M1170.61,-143.7C1170.61,-136.41 1170.61,-127.73 1170.61,-119.54"/>
<polygon fill="blue" stroke="blue" points="1174.11,-119.62 1170.61,-109.62 1167.11,-119.62 1174.11,-119.62"/>
</g>
<!-- 15 -->
<g id="node16" class="node">
<title>15</title>
<ellipse fill="none" stroke="black" cx="1305.61" cy="-90" rx="56.47" ry="18"/>
<text text-anchor="middle" x="1305.61" y="-85.33" font-family="Times,serif" font-size="14.00">once_cell</text>
</g>
<!-- 10&#45;&gt;15 -->
<g id="edge20" class="edge">
<title>10&#45;&gt;15</title>
<path fill="none" stroke="blue" d="M1200.57,-145.46C1220.2,-135.29 1246.04,-121.89 1267.17,-110.93"/>
<polygon fill="blue" stroke="blue" points="1268.51,-114.18 1275.78,-106.47 1265.29,-107.97 1268.51,-114.18"/>
</g>
<!-- 16 -->
<g id="node17" class="node">
<title>16</title>
<ellipse fill="none" stroke="black" cx="468.61" cy="-90" rx="54.36" ry="18"/>
<text text-anchor="middle" x="468.61" y="-85.33" font-family="Times,serif" font-size="14.00">countme</text>
</g>
<!-- 11&#45;&gt;16 -->
<g id="edge21" class="edge">
<title>11&#45;&gt;16</title>
<path fill="none" stroke="black" d="M718.84,-152.57C674.58,-142.36 598.03,-124.46 532.61,-108 528.82,-107.05 524.9,-106.04 520.96,-105.03"/>
<polygon fill="black" stroke="black" points="521.91,-101.66 511.35,-102.52 520.14,-108.43 521.91,-101.66"/>
</g>
<!-- 17 -->
<g id="node18" class="node">
<title>17</title>
<ellipse fill="none" stroke="black" cx="607.61" cy="-90" rx="66.47" ry="18"/>
<text text-anchor="middle" x="607.61" y="-85.33" font-family="Times,serif" font-size="14.00">hashbrown</text>
</g>
<!-- 11&#45;&gt;17 -->
<g id="edge22" class="edge">
<title>11&#45;&gt;17</title>
<path fill="none" stroke="black" d="M728.12,-148C706.18,-137.62 675.06,-122.9 649.94,-111.02"/>
<polygon fill="black" stroke="black" points="651.49,-107.88 640.96,-106.77 648.5,-114.21 651.49,-107.88"/>
</g>
<!-- 18 -->
<g id="node19" class="node">
<title>18</title>
<ellipse fill="none" stroke="black" cx="755.61" cy="-90" rx="63.83" ry="18"/>
<text text-anchor="middle" x="755.61" y="-85.33" font-family="Times,serif" font-size="14.00">memoffset</text>
</g>
<!-- 11&#45;&gt;18 -->
<g id="edge23" class="edge">
<title>11&#45;&gt;18</title>
<path fill="none" stroke="black" d="M755.61,-143.7C755.61,-136.41 755.61,-127.73 755.61,-119.54"/>
<polygon fill="black" stroke="black" points="759.11,-119.62 755.61,-109.62 752.11,-119.62 759.11,-119.62"/>
</g>
<!-- 19 -->
<g id="node20" class="node">
<title>19</title>
<ellipse fill="none" stroke="black" cx="901.61" cy="-90" rx="63.83" ry="18"/>
<text text-anchor="middle" x="901.61" y="-85.33" font-family="Times,serif" font-size="14.00">rustc&#45;hash</text>
</g>
<!-- 11&#45;&gt;19 -->
<g id="edge24" class="edge">
<title>11&#45;&gt;19</title>
<path fill="none" stroke="black" d="M783.08,-147.83C804.76,-137.44 835.37,-122.76 860.05,-110.93"/>
<polygon fill="black" stroke="black" points="861.35,-114.19 868.86,-106.71 858.33,-107.87 861.35,-114.19"/>
</g>
<!-- 20 -->
<g id="node21" class="node">
<title>20</title>
<ellipse fill="none" stroke="black" cx="1037.61" cy="-90" rx="53.84" ry="18"/>
<text text-anchor="middle" x="1037.61" y="-85.33" font-family="Times,serif" font-size="14.00">text&#45;size</text>
</g>
<!-- 11&#45;&gt;20 -->
<g id="edge25" class="edge">
<title>11&#45;&gt;20</title>
<path fill="none" stroke="black" d="M792.11,-152.48C835.64,-142.24 910.57,-124.39 974.61,-108 978.35,-107.04 982.2,-106.04 986.08,-105.02"/>
<polygon fill="black" stroke="black" points="986.76,-108.47 995.52,-102.52 984.96,-101.7 986.76,-108.47"/>
</g>
<!-- 21 -->
<g id="node22" class="node">
<title>21</title>
<ellipse fill="none" stroke="darkgreen" stroke-dasharray="5,2" cx="89.61" cy="-18" rx="75.41" ry="18"/>
<text text-anchor="middle" x="89.61" y="-13.32" font-family="Times,serif" font-size="14.00">regex&#45;syntax</text>
</g>
<!-- 12&#45;&gt;21 -->
<g id="edge26" class="edge">
<title>12&#45;&gt;21</title>
<path fill="none" stroke="darkgreen" stroke-dasharray="1,5" d="M89.61,-71.7C89.61,-64.41 89.61,-55.73 89.61,-47.54"/>
<polygon fill="darkgreen" stroke="darkgreen" points="93.11,-47.62 89.61,-37.62 86.11,-47.62 93.11,-47.62"/>
</g>
<!-- 13&#45;&gt;15 -->
<g id="edge29" class="edge">
<title>13&#45;&gt;15</title>
<path fill="none" stroke="black" d="M1318.07,-287.93C1312.97,-277.82 1307.22,-264.57 1304.61,-252 1295.14,-206.38 1298.43,-151.9 1301.88,-119.45"/>
<polygon fill="black" stroke="black" points="1305.34,-119.99 1303.01,-109.66 1298.38,-119.19 1305.34,-119.99"/>
</g>
<!-- 22 -->
<g id="node23" class="node">
<title>22</title>
<ellipse fill="none" stroke="black" cx="1369.61" cy="-234" rx="56.47" ry="18"/>
<text text-anchor="middle" x="1369.61" y="-229.32" font-family="Times,serif" font-size="14.00">arbitrary</text>
</g>
<!-- 13&#45;&gt;22 -->
<g id="edge27" class="edge">
<title>13&#45;&gt;22</title>
<path fill="none" stroke="black" d="M1338,-287.7C1342.68,-279.9 1348.31,-270.51 1353.52,-261.83"/>
<polygon fill="black" stroke="black" points="1356.43,-263.78 1358.57,-253.4 1350.43,-260.18 1356.43,-263.78"/>
</g>
<!-- 23 -->
<g id="node24" class="node">
<title>23</title>
<ellipse fill="none" stroke="#00cd00" cx="1470.61" cy="-234" rx="27" ry="18"/>
<text text-anchor="middle" x="1470.61" y="-229.32" font-family="Times,serif" font-size="14.00">cc</text>
</g>
<!-- 13&#45;&gt;23 -->
<g id="edge28" class="edge">
<title>13&#45;&gt;23</title>
<path fill="none" stroke="#00cd00" d="M1359.71,-289.29C1383.41,-277.69 1415.53,-261.97 1439.1,-250.43"/>
<polygon fill="#00cd00" stroke="#00cd00" points="1440.46,-253.66 1447.91,-246.12 1437.39,-247.37 1440.46,-253.66"/>
</g>
<!-- 24 -->
<g id="node25" class="node">
<title>24</title>
<ellipse fill="none" stroke="#00cd00" cx="755.61" cy="-18" rx="48.58" ry="18"/>
<text text-anchor="middle" x="755.61" y="-13.32" font-family="Times,serif" font-size="14.00">autocfg</text>
</g>
<!-- 18&#45;&gt;24 -->
<g id="edge30" class="edge">
<title>18&#45;&gt;24</title>
<path fill="none" stroke="#00cd00" d="M755.61,-71.7C755.61,-64.41 755.61,-55.73 755.61,-47.54"/>
<polygon fill="#00cd00" stroke="#00cd00" points="759.11,-47.62 755.61,-37.62 752.11,-47.62 759.11,-47.62"/>
</g>
<!-- 25 -->
<g id="node26" class="node">
<title>25</title>
<ellipse fill="lightgrey" stroke="#00cd00" stroke-dasharray="5,2" cx="1470.61" cy="-162" rx="29.11" ry="18"/>
<text text-anchor="middle" x="1470.61" y="-157.32" font-family="Times,serif" font-size="14.00">libc</text>
</g>
<!-- 23&#45;&gt;25 -->
<g id="edge31" class="edge">
<title>23&#45;&gt;25</title>
<path fill="none" stroke="#00cd00" stroke-dasharray="1,5" d="M1470.61,-215.7C1470.61,-208.41 1470.61,-199.73 1470.61,-191.54"/>
<polygon fill="lightgrey" stroke="#00cd00" points="1474.11,-191.62 1470.61,-181.62 1467.11,-191.62 1474.11,-191.62"/>
</g>
</g>
</svg>
