<?xml version="1.0" encoding="UTF-8" standalone="no"?>
<!DOCTYPE svg PUBLIC "-//W3C//DTD SVG 1.1//EN"
 "http://www.w3.org/Graphics/SVG/1.1/DTD/svg11.dtd">
<!-- Generated by graphviz version 7.0.2 (0)
 -->
<!-- Pages: 1 -->
<svg width="1302pt" height="404pt"
 viewBox="0.00 0.00 1302.24 404.00" xmlns="http://www.w3.org/2000/svg" xmlns:xlink="http://www.w3.org/1999/xlink">
<g id="graph0" class="graph" transform="scale(1 1) rotate(0) translate(4 400)">
<polygon fill="white" stroke="none" points="-4,4 -4,-400 1298.24,-400 1298.24,4 -4,4"/>
<!-- 0 -->
<g id="node1" class="node">
<title>0</title>
<polygon fill="none" stroke="black" points="218.69,-252 161.69,-252 161.69,-216 218.69,-216 218.69,-252"/>
<text text-anchor="middle" x="190.19" y="-230.3" font-family="Times,serif" font-size="14.00">arena</text>
</g>
<!-- 1 -->
<g id="node2" class="node">
<title>1</title>
<polygon fill="none" stroke="black" points="381.69,-396 310.69,-396 310.69,-360 381.69,-360 381.69,-396"/>
<text text-anchor="middle" x="346.19" y="-374.3" font-family="Times,serif" font-size="14.00">liom_cli</text>
</g>
<!-- 2 -->
<g id="node3" class="node">
<title>2</title>
<polygon fill="none" stroke="black" points="351.19,-324 277.19,-324 277.19,-288 351.19,-288 351.19,-324"/>
<text text-anchor="middle" x="314.19" y="-302.3" font-family="Times,serif" font-size="14.00">liom_hir</text>
</g>
<!-- 1&#45;&gt;2 -->
<g id="edge1" class="edge">
<title>1&#45;&gt;2</title>
<path fill="none" stroke="black" d="M338.28,-359.7C334.79,-352.07 330.61,-342.92 326.72,-334.4"/>
<polygon fill="black" stroke="black" points="329.98,-333.12 322.64,-325.48 323.62,-336.03 329.98,-333.12"/>
</g>
<!-- 3 -->
<g id="node4" class="node">
<title>3</title>
<polygon fill="none" stroke="black" points="456.69,-252 355.69,-252 355.69,-216 456.69,-216 456.69,-252"/>
<text text-anchor="middle" x="406.19" y="-230.3" font-family="Times,serif" font-size="14.00">liom_syntax</text>
</g>
<!-- 1&#45;&gt;3 -->
<g id="edge2" class="edge">
<title>1&#45;&gt;3</title>
<path fill="none" stroke="black" d="M353.55,-359.59C363.77,-335.4 382.38,-291.36 394.51,-262.65"/>
<polygon fill="black" stroke="black" points="397.71,-264.08 398.37,-253.51 391.26,-261.35 397.71,-264.08"/>
</g>
<!-- 2&#45;&gt;0 -->
<g id="edge3" class="edge">
<title>2&#45;&gt;0</title>
<path fill="none" stroke="black" d="M283.22,-287.52C266.79,-278.24 246.44,-266.75 228.97,-256.89"/>
<polygon fill="black" stroke="black" points="230.82,-253.91 220.39,-252.04 227.37,-260.01 230.82,-253.91"/>
</g>
<!-- 2&#45;&gt;3 -->
<g id="edge4" class="edge">
<title>2&#45;&gt;3</title>
<path fill="none" stroke="black" d="M336.93,-287.7C348.21,-279.11 362.02,-268.61 374.34,-259.24"/>
<polygon fill="black" stroke="black" points="376.35,-262.1 382.19,-253.26 372.11,-256.53 376.35,-262.1"/>
</g>
<!-- 8 -->
<g id="node9" class="node">
<title>8</title>
<ellipse fill="none" stroke="black" cx="287.19" cy="-234" rx="50.09" ry="18"/>
<text text-anchor="middle" x="287.19" y="-230.3" font-family="Times,serif" font-size="14.00">smol_str</text>
</g>
<!-- 2&#45;&gt;8 -->
<g id="edge5" class="edge">
<title>2&#45;&gt;8</title>
<path fill="none" stroke="black" d="M307.52,-287.7C304.61,-280.15 301.12,-271.12 297.87,-262.68"/>
<polygon fill="black" stroke="black" points="301.2,-261.59 294.33,-253.52 294.67,-264.11 301.2,-261.59"/>
</g>
<!-- 4 -->
<g id="node5" class="node">
<title>4</title>
<polygon fill="none" stroke="black" points="272.19,-180 182.19,-180 182.19,-144 272.19,-144 272.19,-180"/>
<text text-anchor="middle" x="227.19" y="-158.3" font-family="Times,serif" font-size="14.00">liom_lexer</text>
</g>
<!-- 3&#45;&gt;4 -->
<g id="edge7" class="edge">
<title>3&#45;&gt;4</title>
<path fill="none" stroke="black" d="M361.49,-215.52C337.47,-206.13 307.67,-194.47 282.24,-184.53"/>
<polygon fill="black" stroke="black" points="283.64,-181.32 273.05,-180.93 281.09,-187.83 283.64,-181.32"/>
</g>
<!-- 6 -->
<g id="node7" class="node">
<title>6</title>
<polygon fill="none" stroke="black" points="391.69,-180 290.69,-180 290.69,-144 391.69,-144 391.69,-180"/>
<text text-anchor="middle" x="341.19" y="-158.3" font-family="Times,serif" font-size="14.00">liom_parser</text>
</g>
<!-- 3&#45;&gt;6 -->
<g id="edge8" class="edge">
<title>3&#45;&gt;6</title>
<path fill="none" stroke="black" d="M390.13,-215.7C382.49,-207.47 373.21,-197.48 364.8,-188.42"/>
<polygon fill="black" stroke="black" points="367.47,-186.16 358.11,-181.21 362.34,-190.92 367.47,-186.16"/>
</g>
<!-- 9 -->
<g id="node10" class="node">
<title>9</title>
<ellipse fill="none" stroke="blue" cx="472.19" cy="-162" rx="62.29" ry="18"/>
<text text-anchor="middle" x="472.19" y="-158.3" font-family="Times,serif" font-size="14.00">expect&#45;test</text>
</g>
<!-- 3&#45;&gt;9 -->
<g id="edge6" class="edge">
<title>3&#45;&gt;9</title>
<path fill="none" stroke="blue" d="M422.51,-215.7C430.46,-207.27 440.16,-196.97 448.87,-187.73"/>
<polygon fill="blue" stroke="blue" points="451.17,-190.4 455.48,-180.72 446.08,-185.6 451.17,-190.4"/>
</g>
<!-- 10 -->
<g id="node11" class="node">
<title>10</title>
<ellipse fill="none" stroke="black" cx="908.19" cy="-162" rx="39.79" ry="18"/>
<text text-anchor="middle" x="908.19" y="-158.3" font-family="Times,serif" font-size="14.00">rowan</text>
</g>
<!-- 3&#45;&gt;10 -->
<g id="edge9" class="edge">
<title>3&#45;&gt;10</title>
<path fill="none" stroke="black" d="M457.09,-225.9C554,-212.39 763.84,-183.13 859.23,-169.83"/>
<polygon fill="black" stroke="black" points="859.63,-173.31 869.05,-168.46 858.66,-166.37 859.63,-173.31"/>
</g>
<!-- 5 -->
<g id="node6" class="node">
<title>5</title>
<polygon fill="none" stroke="black" points="278.19,-108 184.19,-108 184.19,-72 278.19,-72 278.19,-108"/>
<text text-anchor="middle" x="231.19" y="-86.3" font-family="Times,serif" font-size="14.00">liom_token</text>
</g>
<!-- 4&#45;&gt;5 -->
<g id="edge10" class="edge">
<title>4&#45;&gt;5</title>
<path fill="none" stroke="black" d="M222.27,-143.7C221.93,-136.32 222.19,-127.52 222.94,-119.25"/>
<polygon fill="black" stroke="black" points="226.38,-119.96 224.13,-109.61 219.43,-119.1 226.38,-119.96"/>
</g>
<!-- 4&#45;&gt;5 -->
<g id="edge11" class="edge">
<title>4&#45;&gt;5</title>
<path fill="none" stroke="#00cd00" d="M234.1,-143.7C235.27,-136.41 236.01,-127.73 236.21,-119.54"/>
<polygon fill="#00cd00" stroke="#00cd00" points="239.71,-119.59 236.12,-109.62 232.71,-119.65 239.71,-119.59"/>
</g>
<!-- 11 -->
<g id="node12" class="node">
<title>11</title>
<ellipse fill="none" stroke="darkgreen" cx="83.19" cy="-90" rx="83.39" ry="18"/>
<text text-anchor="middle" x="83.19" y="-86.3" font-family="Times,serif" font-size="14.00">regex&#45;automata</text>
</g>
<!-- 4&#45;&gt;11 -->
<g id="edge12" class="edge">
<title>4&#45;&gt;11</title>
<path fill="none" stroke="black" d="M185.29,-143.52C164.99,-134.11 140.85,-122.43 121.09,-112.48"/>
<polygon fill="black" stroke="black" points="122.77,-109.4 112.27,-107.99 119.59,-115.64 122.77,-109.4"/>
</g>
<!-- 4&#45;&gt;11 -->
<g id="edge13" class="edge">
<title>4&#45;&gt;11</title>
<path fill="none" stroke="#00cd00" d="M197.16,-143.52C178.04,-133.74 152.95,-121.5 131.14,-111.3"/>
<polygon fill="#00cd00" stroke="#00cd00" points="132.66,-108.14 122.11,-107.11 129.71,-114.49 132.66,-108.14"/>
</g>
<!-- 6&#45;&gt;5 -->
<g id="edge15" class="edge">
<title>6&#45;&gt;5</title>
<path fill="none" stroke="black" d="M313.72,-143.52C299.83,-134.68 282.79,-123.84 267.81,-114.3"/>
<polygon fill="black" stroke="black" points="269.91,-111.49 259.59,-109.07 266.15,-117.39 269.91,-111.49"/>
</g>
<!-- 7 -->
<g id="node8" class="node">
<title>7</title>
<polygon fill="none" stroke="black" points="385.69,-108 296.69,-108 296.69,-72 385.69,-72 385.69,-108"/>
<text text-anchor="middle" x="341.19" y="-86.3" font-family="Times,serif" font-size="14.00">liom_node</text>
</g>
<!-- 6&#45;&gt;7 -->
<g id="edge14" class="edge">
<title>6&#45;&gt;7</title>
<path fill="none" stroke="black" d="M341.19,-143.7C341.19,-136.41 341.19,-127.73 341.19,-119.54"/>
<polygon fill="black" stroke="black" points="344.69,-119.62 341.19,-109.62 337.69,-119.62 344.69,-119.62"/>
</g>
<!-- 12 -->
<g id="node13" class="node">
<title>12</title>
<ellipse fill="none" stroke="blue" cx="460.19" cy="-90" rx="56.59" ry="18"/>
<text text-anchor="middle" x="460.19" y="-86.3" font-family="Times,serif" font-size="14.00">dissimilar</text>
</g>
<!-- 9&#45;&gt;12 -->
<g id="edge16" class="edge">
<title>9&#45;&gt;12</title>
<path fill="none" stroke="blue" d="M469.23,-143.7C467.96,-136.32 466.45,-127.52 465.04,-119.25"/>
<polygon fill="blue" stroke="blue" points="468.52,-118.86 463.38,-109.6 461.62,-120.04 468.52,-118.86"/>
</g>
<!-- 13 -->
<g id="node14" class="node">
<title>13</title>
<ellipse fill="none" stroke="blue" cx="587.19" cy="-90" rx="52.79" ry="18"/>
<text text-anchor="middle" x="587.19" y="-86.3" font-family="Times,serif" font-size="14.00">once_cell</text>
</g>
<!-- 9&#45;&gt;13 -->
<g id="edge17" class="edge">
<title>9&#45;&gt;13</title>
<path fill="none" stroke="blue" d="M498,-145.29C514.2,-135.43 535.29,-122.59 552.89,-111.88"/>
<polygon fill="blue" stroke="blue" points="554.25,-115.15 560.97,-106.96 550.61,-109.17 554.25,-115.15"/>
</g>
<!-- 14 -->
<g id="node15" class="node">
<title>14</title>
<ellipse fill="none" stroke="black" cx="708.19" cy="-90" rx="50.89" ry="18"/>
<text text-anchor="middle" x="708.19" y="-86.3" font-family="Times,serif" font-size="14.00">countme</text>
</g>
<!-- 10&#45;&gt;14 -->
<g id="edge18" class="edge">
<title>10&#45;&gt;14</title>
<path fill="none" stroke="black" d="M877.38,-150.22C844.47,-138.7 791.95,-120.31 754.15,-107.09"/>
<polygon fill="black" stroke="black" points="755.45,-103.83 744.85,-103.83 753.13,-110.44 755.45,-103.83"/>
</g>
<!-- 15 -->
<g id="node16" class="node">
<title>15</title>
<ellipse fill="none" stroke="black" cx="838.19" cy="-90" rx="61.99" ry="18"/>
<text text-anchor="middle" x="838.19" y="-86.3" font-family="Times,serif" font-size="14.00">hashbrown</text>
</g>
<!-- 10&#45;&gt;15 -->
<g id="edge19" class="edge">
<title>10&#45;&gt;15</title>
<path fill="none" stroke="black" d="M892.31,-145.12C883.61,-136.42 872.64,-125.45 862.86,-115.66"/>
<polygon fill="black" stroke="black" points="865.61,-113.46 856.06,-108.87 860.66,-118.41 865.61,-113.46"/>
</g>
<!-- 16 -->
<g id="node17" class="node">
<title>16</title>
<ellipse fill="none" stroke="black" cx="978.19" cy="-90" rx="59.59" ry="18"/>
<text text-anchor="middle" x="978.19" y="-86.3" font-family="Times,serif" font-size="14.00">memoffset</text>
</g>
<!-- 10&#45;&gt;16 -->
<g id="edge20" class="edge">
<title>10&#45;&gt;16</title>
<path fill="none" stroke="black" d="M924.08,-145.12C932.9,-136.29 944.06,-125.13 953.95,-115.24"/>
<polygon fill="black" stroke="black" points="956.22,-117.92 960.82,-108.38 951.27,-112.97 956.22,-117.92"/>
</g>
<!-- 17 -->
<g id="node18" class="node">
<title>17</title>
<ellipse fill="none" stroke="black" cx="1116.19" cy="-90" rx="59.59" ry="18"/>
<text text-anchor="middle" x="1116.19" y="-86.3" font-family="Times,serif" font-size="14.00">rustc&#45;hash</text>
</g>
<!-- 10&#45;&gt;17 -->
<g id="edge21" class="edge">
<title>10&#45;&gt;17</title>
<path fill="none" stroke="black" d="M939.33,-150.52C973,-139.19 1027.14,-120.97 1066.66,-107.67"/>
<polygon fill="black" stroke="black" points="1067.59,-111.05 1075.95,-104.54 1065.36,-104.41 1067.59,-111.05"/>
</g>
<!-- 18 -->
<g id="node19" class="node">
<title>18</title>
<ellipse fill="none" stroke="black" cx="1244.19" cy="-90" rx="50.09" ry="18"/>
<text text-anchor="middle" x="1244.19" y="-86.3" font-family="Times,serif" font-size="14.00">text&#45;size</text>
</g>
<!-- 10&#45;&gt;18 -->
<g id="edge22" class="edge">
<title>10&#45;&gt;18</title>
<path fill="none" stroke="black" d="M945.16,-155.03C998.49,-146.18 1099.95,-128.39 1185.19,-108 1188.72,-107.16 1192.35,-106.24 1195.99,-105.28"/>
<polygon fill="black" stroke="black" points="1196.69,-108.72 1205.42,-102.71 1194.85,-101.96 1196.69,-108.72"/>
</g>
<!-- 19 -->
<g id="node20" class="node">
<title>19</title>
<ellipse fill="none" stroke="darkgreen" stroke-dasharray="5,2" cx="83.19" cy="-18" rx="70.39" ry="18"/>
<text text-anchor="middle" x="83.19" y="-14.3" font-family="Times,serif" font-size="14.00">regex&#45;syntax</text>
</g>
<!-- 11&#45;&gt;19 -->
<g id="edge23" class="edge">
<title>11&#45;&gt;19</title>
<path fill="none" stroke="darkgreen" stroke-dasharray="1,5" d="M83.19,-71.7C83.19,-64.41 83.19,-55.73 83.19,-47.54"/>
<polygon fill="darkgreen" stroke="darkgreen" points="86.69,-47.62 83.19,-37.62 79.69,-47.62 86.69,-47.62"/>
</g>
<!-- 20 -->
<g id="node21" class="node">
<title>20</title>
<ellipse fill="none" stroke="#00cd00" cx="978.19" cy="-18" rx="45.49" ry="18"/>
<text text-anchor="middle" x="978.19" y="-14.3" font-family="Times,serif" font-size="14.00">autocfg</text>
</g>
<!-- 16&#45;&gt;20 -->
<g id="edge24" class="edge">
<title>16&#45;&gt;20</title>
<path fill="none" stroke="#00cd00" d="M978.19,-71.7C978.19,-64.41 978.19,-55.73 978.19,-47.54"/>
<polygon fill="#00cd00" stroke="#00cd00" points="981.69,-47.62 978.19,-37.62 974.69,-47.62 981.69,-47.62"/>
</g>
</g>
</svg>
